<?xml version="1.0" encoding="UTF-8"?>
<!-- Created with Inkscape (http://www.inkscape.org/) -->
<svg id="svg446" width="200" height="95" version="1.1" viewBox="0 0 52.917 25.135" xml:space="preserve" xmlns="http://www.w3.org/2000/svg" xmlns:cc="http://creativecommons.org/ns#" xmlns:dc="http://purl.org/dc/elements/1.1/" xmlns:rdf="http://www.w3.org/1999/02/22-rdf-syntax-ns#" xmlns:xlink="http://www.w3.org/1999/xlink"><defs id="defs443"><linearGradient id="linearGradient8" x1="213.4" x2="228.49" y1="499.47" y2="502.11" gradientTransform="translate(.041421 .030116)" gradientUnits="userSpaceOnUse"><stop id="stop7" stop-color="#5f290b" offset="0"/><stop id="stop9" stop-color="#e86b29" offset=".42105"/></linearGradient></defs><g id="layer3" transform="translate(-180.32 -488.1)" stroke-width="4.9425"><rect id="rect9" x="239.9" y="486.93" width="24.915" height="25.135" fill="#edefec"/><path id="path5" d="m222.02 489.71-3.2853 1.8521-1.6874 1.993-1.4876 3.0341-1.0583 2.9104 0.43047 3.7042 1.4216 1.5875-0.52917 1.7405 0.26459 4.469 14.023-0.12413 0.26458-10.583-0.26458-3.4396-2.3812-2.6458-2.9104-2.9104-0.90443 3.8144-0.26557 0.68349-0.94667-0.39959-0.26458-5.5405z" fill="url(#linearGradient8)"/><path id="path6" d="m221.38 489.98-1.8521 1.0583s-2.3811 2.3814-2.481 2.5223-1.4878 3.8277-1.4878 3.8277l-1.3229 2.9104 1.8521 4.2333s-1.0583-4.2333-0.26458-4.7625c0 0 0.62306 0.83832 0.52916 0.26459-0.40767-2.4922 1.5245-6.5509 5.2917-9.525zm-4.7625 15.081-0.62374 1.3229-0.17001 2.1167s0.55292-2.1339 1.5875-2.6458z" fill="#f19f74"/><path id="path9" d="m210.79 500.3c-0.26458 0-6.8792-2.1167-6.8792-2.1167l-3.175-6.35-8.2021 0.52917-7.4083 2.1167 1.3229 6.6146 1.8521 5.8208 2.1167 3.175h1.5875l10.319-1.5875 2.3812-6.6146 5.8208-1.0583z" fill="#edefec"/><path id="path17" d="m218.47 495.53c-0.79375 1.0583-1.1855 4.7625-1.1855 4.7625 2.2434 2.6458 4.625-2.1167 3.438-3.4396 0 0-1.0716-1.3229-2.2526-1.3229zm7.4936 1.7839c-0.78806-0.00818-1.4082 0.45165-1.4082 0.45165-2.3813 5.4375 1.5875 4.5134 1.5875 4.5134s1.8521-0.92825 1.3229-4.2447c-0.49609-0.54227-1.0294-0.71546-1.5022-0.72037z" fill="#edefec"/><rect id="rect18" transform="rotate(44.1)" x="506.25" y="214.18" width="2.1273" height="7.5179" ry="1.7198" fill="#edefec"/></g><g id="layer1" transform="translate(-180.32 -487.57)"><path id="path1" d="m222.66 488.09c-0.0956 0-0.67863 0.36708-1.2919 0.7612s-1.7131 1.0844-2.4443 1.5343c-1.5177 0.93369-2.7094 2.5694-3.3362 4.579-0.20894 0.66992-0.55005 1.674-0.86558 2.3864-0.26808 0.60527-1.0583 1.5875-1.0583 1.5875s0.72342 4.0594 1.6614 4.6452c0.6337 0.39575 0.68086 1.279-0.0739 1.4402-1.8417 0.0982-2.1167 0.79376-2.1167 1.3229 0 0.17886-0.35387 0.63207-0.94 0.94258-0.54353 0.28795-1.4868 1.0509-2.0965 1.6955 0 0-1.7508 1.8134-1.7622 1.8271-2e-3 3e-3 -5e-3 5e-3 -7e-3 8e-3v1.3482h24.915v-4.8359l-1.0019-0.4645s-0.45991-0.36848-0.32091-0.78548c0.26458-0.79375 0.26459-0.79376-0.37878-1.1142l-0.67988-0.47403v-2.9104c0-2.6458-0.0102-3.4368-0.42448-4.7396-0.45701-1.4372-0.65889-1.715-2.9352-4.0375-1.4762-1.5061-2.9903-2.6-2.9903-2.6s-0.26874 0.79488-0.55781 2.3106c-0.21685 1.1371-0.44816 2.121-0.51366 2.1864-0.32628 0.3263-0.45138-0.479-0.52658-3.3874-0.0453-1.7497-0.15843-3.2263-0.25403-3.2263zm-1.0459 1.8082c0.0579 0-0.0861 1.0773-0.31987 2.3942-0.37263 2.0994-0.38704 2.4864-0.11886 3.1419l0.30592 0.74776 0.34417-1.6536c0.29358-1.4102 0.34807-1.5242 0.37207-0.77205 0.0314 0.98907 0.17948 1.2914 0.73174 1.495 0.12748 0.047 0.52451 0.24702 0.52451 0.24702s-0.0566 1.5009-0.52916 2.9104h0.52916s0.46113-1.678 0.85938-3.4696c0.40535-1.8235 0.78088-3.3595 0.83458-3.4132 0.23546-0.23546 2.5846 2.6294 2.7941 3.4075 0.35666 1.3244 1.0674 1.8877 0.01 5.3273-0.37819 1.0502-0.41602 1.3192 0.0889 0.9002 0.5497-0.45622 1.2112-2.0717 1.234-3.8106l-0.17674-1.8294 0.3452 0.99219c0.38056 1.0941 0.55309 4.6998 0.34158 7.1396-0.10025 1.1564-0.23812 1.6018-0.57877 1.8738-0.24581 0.19627-1.0819 0.93608-1.8578 1.6438-1.4628 1.3343-3.0281 2.1842-4.9832 2.7048-0.6259 0.16665-1.4855 0.29959-1.91 0.29559-2.6398-0.0242-4.9283-2.4513-4.1212-4.3708l0.28991-0.69039 0.86868 0.77773c2.9789 2.4562 8.3622 0.26472 9.4108-0.45372 0.75863-0.71022 1.3131-1.4681 1.3131-1.4681s0.2023-0.18698 0-0.26458c-0.23674-0.0909-1.04 0.40178-2.0231 1.0614-2.0771 1.3936-2.8411 1.6763-4.4633 1.6516 0 0-2.2448-0.0672-2.2448-0.33176h2.3812c1.587-0.29115 2.7476-0.79618 4.6235-2.5792 1.462-1.3896 0.93277-0.86042 1.9911-0.86042 0.68719 0 0.83118 0.21042 0.52916-0.26458-0.2364-0.37177-1.4878-0.8262-1.7937-0.64337-2.1478 1.7303-3.8279 3.5966-6.673 3.8184-1.8521 0-2.3812 2e-5 -3.0624-1.6051-0.21669-0.51066-0.62423-1.3902-0.91209-1.9523s-0.52348-1.1824-0.52348-1.3782c0-0.20788-0.01-0.35605-0.26458-0.35605-0.0943 0-0.45017-0.20888-0.52917-0.26458-0.0516 0.18943 0.23501 0.51405 0.29611 0.52917 0.254 0.049-0.0316 0.52917 1.0268 3.175 0 0-0.79343-0.79415-1.4459-2.5156-0.1301-0.34326-0.27244-1.9254-0.0832-2.4112 0.0509-0.13068 0.20619-0.36484 0.20619-0.36484 0.26458 0.79375 0.48806 1.5174 1.3229 1.8521l-0.24133-1.2232c-0.39642-1.7379-0.18719-3.2554 0.69815-5.0602 0.8077-1.6465 1.6983-2.5982 3.1616-3.3781 0.72336-0.38554 1.3628-0.70073 1.4206-0.70073zm-23.933 1.0098v5.2e-4c-3.76 0.0219-6.4683 0.46301-10.235 1.6671l-2.7104 0.86661 1e-3 0.70849c3e-3 2.4258 1.7394 8.9431 3.313 12.435 0.78897 1.751 1.863 3.3103 2.3973 3.4799 0.23029 0.0731 1.9415-0.12884 3.8029-0.44855 1.8613-0.3197 4.4006-0.65852 5.6426-0.75292 2.8966-0.22028 3.2157-0.42115 3.5745-2.249 0.15048-0.76657 0.51161-1.9814 0.80305-2.6996 0.29145-0.7182 0.5302-1.4805 0.5302-1.694 0-0.21346 0.1738-0.43865 0.38602-0.50075 0.33749-0.0987 5.0707-0.90604 5.0707-0.90604 2.2194-0.27653 2.7793-1.0082 1.1023-1.4402-0.51539-0.13276-1.2595-0.34279-1.6536-0.46664l-0.71624-0.2253-0.66095-0.1351-0.4961-0.15348c-0.27285-0.0845-1.2206-0.33266-2.1058-0.55138-0.88525-0.2187-1.6425-0.43403-1.6826-0.47853-0.0402-0.0445-0.62848-1.365-1.3074-2.9347-0.67894-1.5697-1.389-3.0086-1.5782-3.1972-0.28076-0.28005-0.91938-0.33943-3.4773-0.32453zm1.1782 0.77825c0.50627-3e-3 0.90756 0.0162 1.1488 0.0615 0.71944 0.13496 0.82382 0.26489 1.4872 1.8485 0.39252 0.93691 0.9429 2.2461 1.2232 2.9089 0.2803 0.66281 0.67188 1.3235 0.86971 1.4681 0.19782 0.14465 1.0724 0.43052 1.9436 0.63562 2.2703 0.53445 3.899 1.0465 3.899 1.2258 0 0.0851-0.57034 0.22325-1.2676 0.30695-0.69728 0.0836-1.9286 0.29957-2.7358 0.47956-1.4913 0.33254-1.5201 0.35835-1.8304 1.6242-0.0149 0.0606-0.18998 0.606-0.38912 1.2123-0.19912 0.60634-0.48352 1.6981-0.63149 2.4257-0.14797 0.72759-0.38715 1.4529-0.53175 1.6118-0.16259 0.17862-1.1803 0.35936-2.667 0.47387-1.3223 0.10184-3.6446 0.39458-5.1604 0.65061-1.5158 0.25603-2.9696 0.51356-3.2303 0.57206-0.37604 0.0844-0.61206-0.10967-1.1431-0.93948-0.89357-1.3964-1.3366-2.471-2.5528-6.1924-1.0609-3.2462-1.8582-7.4342-1.4862-7.8062 0.35223-0.35223 5.107-1.7082 7.1468-2.0381 1.9246-0.31125 4.3888-0.52034 5.9076-0.52916zm20.112 2.8908c-0.2393-8e-3 -0.47473 0.0398-0.69195 0.15606-0.84726 0.45343-1.8383 3.9579-1.3679 4.8369 0.39392 0.73606 0.5617 0.56244 0.6351-0.65784 0.18444-1.0184 0.43397-4.4162 2.0955-3.2742l0.53847 0.42323-0.40618 1.7141c-0.22351 0.94272-0.40993 1.895-0.41393 2.1162-5e-3 0.26137 0.12311 0.3765 0.36639 0.3297 0.24962-0.0481 0.45128-0.433 0.60616-1.156 0.12769-0.59608 0.35639-1.1249 0.50798-1.1751 0.15677-0.052 0.27544-0.45632 0.27544-0.93793 0-1.2399-1.1081-2.339-2.1451-2.375zm6.9908 1.6934c-0.57417 0.0263-1.1855 0.35244-1.7146 1.08-0.18699 0.25711 0.0681 0.20608-0.0439 0.62528 0.57309-1.9482 5.6002-1.419 1.6314 3.8726 0 0 0.52756 0.18408 1.079-0.47129 2.1597-2.5663 0.77062-5.1854-0.95188-5.1067zm0.0512 1.5787c-0.0785-4e-3 -0.1419 9e-3 -0.17105 0.0382-0.15392 0.15393-0.9772 3.1868-0.9772 3.5998 0 0.20883 0.14918 0.32062 0.37052 0.27802 0.25935-0.0499 0.5201-0.62081 0.86868-1.9022 0.42847-1.5752 0.45231-1.8486 0.17105-1.9565-0.0899-0.0346-0.18351-0.0539-0.262-0.0574zm-4.8515 2.7208c-0.32002 0-0.50518 0.0951-0.42788 0.22014 0.075 0.12129 0.32892 0.22066 0.5643 0.22066s0.42789-0.0994 0.42789-0.22066c0-0.12129-0.25399-0.22014-0.56431-0.22014zm-1.3559 0.75345c-0.20948-1e-3 -0.39114 0.0308-0.51521 0.10283-0.35632 0.20699-0.30703 0.24157 0.3576 0.24857 0.42444 4e-3 1.0653 0.20164 1.4242 0.43821 0.71858 0.47371 0.99863 0.42593 0.56534-0.0961-0.32509-0.39174-1.2035-0.6903-1.8319-0.6935zm-1.5858 2.1964c-0.12914 0.0798-0.11072 0.25117 0.047 0.44131 0.33169 0.39971 0.86558 0.40285 0.86558 4e-3 0-0.12191-0.3365-0.80117-0.91258-0.44531zm2.529 0.69856c-0.0862-6e-3 -0.16452 0.0141-0.22014 0.0698-0.07 0.0704-0.0684 0.28107 3e-3 0.46819l-5.2e-4 5.1e-4c0.16909 0.44005 0.80564 0.44244 0.80564 2e-3 0-0.26404-0.82886-0.63685-0.58808-0.54054zm-5.6839 1.898c0.0764 0.0184 0.0982 0.0997 0.0982 0.25218 0 0.79637-0.53337 1.7647-1.2201 2.2149-0.39752 0.26059-1.0544 1.022-1.4599 1.6919-0.65106 1.0756-0.82196 1.2182-1.4609 1.2242-0.89196 8e-3 -1.1379-0.48611-0.57774-1.1596 1.1858-1.4258 1.843-2.0121 2.8112-2.5068 0.80997-0.41387 1.0437-0.64401 0.96376-0.94929-0.071-0.27158 0.0656-0.48076 0.4191-0.64182 0.21875-0.0997 0.34989-0.14401 0.42633-0.12558z" fill="#272826" stroke-width=".83333"/><path id="path19" d="m198.86 491.69c-1.5188 9e-3 -3.983 0.21791-5.9076 0.52916-2.0399 0.32992-6.7946 1.6859-7.1468 2.0381-0.0821 0.0821-0.0996 0.37417-0.0775 0.77721 0.0143-0.11869 0.0383-0.20878 0.0775-0.24804 0.35223-0.35223 5.107-1.7082 7.1468-2.0381 1.9246-0.31125 4.3888-0.52035 5.9076-0.52917 0.50627-3e-3 0.90756 0.0162 1.1488 0.0615 0.71944 0.13496 0.82382 0.26488 1.4872 1.8485 0.39252 0.93691 0.9429 2.2461 1.2232 2.9089 0.2803 0.66281 0.67188 1.3235 0.86971 1.4681 0.19782 0.14465 1.0724 0.43052 1.9436 0.63562 1.4399 0.33896 2.5625 0.65896 3.2344 0.90072 0.3723-0.0717 0.66456-0.14769 0.66456-0.20412 0-0.17927-1.6286-0.69132-3.899-1.2258-0.8712-0.2051-1.7457-0.49097-1.9436-0.63562-0.19783-0.14465-0.58941-0.80532-0.86971-1.4681-0.28029-0.6628-0.83067-1.972-1.2232-2.9089-0.66342-1.5836-0.7678-1.7135-1.4872-1.8485-0.24121-0.0453-0.6425-0.0645-1.1488-0.0615zm-14.123 2.2851 5.2e-4 0.70848c3e-3 2.4258 1.7394 8.9431 3.313 12.435 0.78897 1.751 1.863 3.3103 2.3973 3.4799 0.23029 0.0731 1.9415-0.12884 3.8029-0.44855 1.8613-0.3197 4.4006-0.65853 5.6426-0.75293 2.8966-0.22028 3.2157-0.42115 3.5745-2.249 0.15048-0.76657 0.51161-1.9814 0.80305-2.6996 0.29145-0.7182 0.5302-1.4805 0.5302-1.694 0-0.21346 0.1738-0.43864 0.38602-0.50074 0.33749-0.0987 5.071-0.90589 5.071-0.90589 1.6978-0.21153 2.4201-0.68972 1.9172-1.0961-0.28372 0.23427-0.93838 0.44494-1.9172 0.56689 0 0-4.7335 0.80719-5.071 0.90589-0.21222 0.0621-0.38602 0.28729-0.38602 0.50075 0 0.21345-0.23875 0.97575-0.5302 1.694-0.29144 0.71819-0.65257 1.933-0.80305 2.6996-0.35878 1.8278-0.67782 2.0287-3.5745 2.249-1.2419 0.0944-3.7812 0.43322-5.6426 0.75292-1.8613 0.31971-3.5726 0.52165-3.8029 0.44855-0.53423-0.16957-1.6083-1.7289-2.3973-3.4799-1.5736-3.4923-3.31-10.01-3.313-12.435v-0.17932zm29.011 5.3862c-0.0137 0.0173-0.0832 0.11007-0.0832 0.11007s0.72342 4.0594 1.6614 4.6452c0.21515 0.13436 0.35638 0.32561 0.42788 0.52503 0.14226-0.33694-0.0163-0.79717-0.42788-1.0542-0.78522-0.49037-1.3922-3.2865-1.5782-4.2261zm14.355 4.8648c-0.0323 4e-3 -0.0734 0.0176-0.11317 0.0295-0.21278 0.2696-0.55882 0.68905-1.0852 1.1818-0.46115 0.31595-1.7612 0.91643-3.3259 1.2816-0.38025 0.12036-0.75574 0.18721-1.173 0.21239-1.7131 0.22813-3.5594 0.075-4.9118-1.0402l-0.86868-0.77773-0.28991 0.69039c-0.15223 0.36207-0.19379 0.74221-0.14417 1.1209 0.0214-0.20021 0.0631-0.39879 0.14417-0.5917l0.28991-0.6904 0.86868 0.77773c2.9789 2.4562 8.3622 0.26472 9.4108-0.45372 0.75863-0.71022 1.3131-1.4681 1.3131-1.4681s0.2023-0.18699 0-0.26459c-0.0296-0.0114-0.0682-0.0138-0.11472-8e-3zm3.9119 1.5586c-0.0274 0.0918-0.0501 0.17244-0.093 0.30128-0.0489 0.14678-0.014 0.2802 0.0393 0.40101 0.12596-0.38383 0.17331-0.57055 0.0537-0.70229zm-23.685 6.3872v0.52917h24.915v-0.52917h-12.458z" opacity=".19966" stroke-width=".83333"/><path id="path23" transform="translate(7.572e-7)" d="m191.17 499.74a0.92604 0.92604 0 0 0-0.92604 0.92604 0.92604 0.92604 0 0 0 0.92604 0.92604 0.92604 0.92604 0 0 0 0.92604-0.92604 0.92604 0.92604 0 0 0-0.92604-0.92604zm3.7042 0a0.92604 0.92604 0 0 0-0.92604 0.92604 0.92604 0.92604 0 0 0 0.92604 0.92604 0.92604 0.92604 0 0 0 0.92605-0.92604 0.92604 0.92604 0 0 0-0.92605-0.92604zm3.7042 0a0.92604 0.92604 0 0 0-0.92604 0.92604 0.92604 0.92604 0 0 0 0.92604 0.92604 0.92604 0.92604 0 0 0 0.92604-0.92604 0.92604 0.92604 0 0 0-0.92604-0.92604z" opacity=".193" stroke-width="4.9425"/><path id="path20" d="m191.17 499.47a0.92604 0.92604 0 0 0-0.92604 0.92604 0.92604 0.92604 0 0 0 0.92604 0.92604 0.92604 0.92604 0 0 0 0.92604-0.92604 0.92604 0.92604 0 0 0-0.92604-0.92604zm3.7042 0a0.92604 0.92604 0 0 0-0.92604 0.92604 0.92604 0.92604 0 0 0 0.92604 0.92604 0.92604 0.92604 0 0 0 0.92605-0.92604 0.92604 0.92604 0 0 0-0.92605-0.92604zm3.7042 0a0.92604 0.92604 0 0 0-0.92604 0.92604 0.92604 0.92604 0 0 0 0.92604 0.92604 0.92604 0.92604 0 0 0 0.92604-0.92604 0.92604 0.92604 0 0 0-0.92604-0.92604z" fill="#272826" stroke-width="4.9425"/><path id="path16" transform="translate(7.572e-7)" d="m222.66 488.09c-0.0956 0-0.67863 0.36708-1.2919 0.7612s-1.7131 1.0844-2.4443 1.5343c-1.5177 0.93369-2.7094 2.5694-3.3362 4.579-0.20894 0.66992-0.55005 1.674-0.86558 2.3864-0.26808 0.60527-1.0583 1.5875-1.0583 1.5875s0.047 0.2363 0.0832 0.41909c0.12739-0.16064 0.73309-0.93092 0.97514-1.4774 0.31553-0.71239 0.65664-1.7165 0.86558-2.3864 0.62679-2.0096 1.8185-3.6454 3.3362-4.579 0.73122-0.44985 1.831-1.1402 2.4443-1.5343s1.1963-0.76119 1.2919-0.76119 0.20895 1.4764 0.25425 3.2262c0.0752 2.9084 0.2003 3.7137 0.52658 3.3874 0.0655-0.0654 0.29682-1.0493 0.51367-2.1864 0.28907-1.5157 0.55759-2.3104 0.55759-2.3104s1.5144 1.0938 2.9905 2.5998c2.2763 2.3225 2.4782 2.6002 2.9352 4.0375 0.41428 1.3028 0.42427 2.0939 0.42427 4.7398v-0.52917c0-2.6458-0.01-3.437-0.42427-4.7398-0.45701-1.4372-0.65889-1.715-2.9352-4.0375-1.4762-1.5061-2.9905-2.5998-2.9905-2.5998s-0.26852 0.79472-0.55759 2.3104c-0.21685 1.1371-0.44817 2.121-0.51367 2.1864-0.32628 0.3263-0.45138-0.479-0.52658-3.3874-0.0453-1.7497-0.15865-3.2262-0.25425-3.2262zm-24.979 2.8179v5.2e-4c-3.76 0.0219-6.4683 0.46301-10.235 1.6671l-2.7104 0.86661 5.2e-4 0.52917 2.7099-0.86662c3.7663-1.2041 6.4745-1.6452 10.235-1.6671v-5.1e-4c2.5579-0.0149 3.1965 0.0445 3.4773 0.32452 0.18915 0.18867 0.89926 1.6275 1.5782 3.1972 0.67894 1.5697 1.2672 2.8902 1.3074 2.9347 0.0401 0.0445 0.79733 0.25982 1.6826 0.47852 0.88525 0.21872 1.833 0.46689 2.1058 0.55139l0.4961 0.15348 0.66094 0.13539 0.71624 0.22531c0.39412 0.12385 1.1382 0.33388 1.6536 0.46664 0.39415 0.10153 0.66042 0.21984 0.81494 0.34468 0.36047-0.29704 0.12301-0.63223-0.81494-0.87385-0.51539-0.13276-1.2595-0.34279-1.6536-0.46664l-0.71624-0.2253-0.66094-0.1354-0.4961-0.15348c-0.27285-0.0845-1.2206-0.33266-2.1058-0.55138-0.88525-0.2187-1.6425-0.43403-1.6826-0.47853-0.0402-0.0445-0.62848-1.365-1.3074-2.9347-0.67894-1.5697-1.389-3.0086-1.5782-3.1972-0.28076-0.28005-0.91938-0.33943-3.4773-0.32453zm-11.953 4.1217c-0.12165 1.0043 0.61392 4.6546 1.5632 7.5592 1.2163 3.7214 1.6592 4.796 2.5528 6.1924 0.53102 0.82981 0.76704 1.0239 1.1431 0.93947 0.26069-0.0585 1.7144-0.31602 3.2303-0.57205 1.5158-0.25603 3.8381-0.54877 5.1604-0.65061 1.4867-0.11451 2.5044-0.29525 2.667-0.47387 0.1446-0.15887 0.38378-0.8842 0.53175-1.6118 0.14797-0.72761 0.43237-1.8194 0.63149-2.4257 0.19914-0.60633 0.37422-1.1517 0.38912-1.2123 0.3103-1.2658 0.33909-1.2916 1.8304-1.6242 0.8072-0.17999 2.0385-0.39596 2.7358-0.47956 0.69729-0.0837 1.2676-0.22186 1.2676-0.30696 0-0.0656-0.27668-0.18565-0.66405-0.32504-0.18916 0.0364-0.36861 0.0746-0.60358 0.10283-0.69728 0.0836-1.9286 0.29957-2.7358 0.47956-1.4913 0.33254-1.5201 0.35835-1.8304 1.6242-0.0149 0.0606-0.18998 0.606-0.38912 1.2123-0.19912 0.60634-0.48352 1.6981-0.63149 2.4257-0.14797 0.72759-0.38715 1.4529-0.53175 1.6118-0.16259 0.17862-1.1803 0.35936-2.667 0.47387-1.3223 0.10184-3.6446 0.39458-5.1604 0.65061-1.5158 0.25603-2.9696 0.51356-3.2303 0.57206-0.37604 0.0844-0.61206-0.10967-1.1431-0.93948-0.89357-1.3964-1.3366-2.471-2.5528-6.1924-0.82696-2.5303-1.4855-5.6086-1.5632-7.0301zm5.4467 4.4385a0.92604 0.92604 0 0 0-0.92604 0.92604 0.92604 0.92604 0 0 0 0.01757 0.13229 0.92604 0.92604 0 0 1 0.90847-0.79375 0.92604 0.92604 0 0 1 0.90847 0.79375 0.92604 0.92604 0 0 0 0.01757-0.13229 0.92604 0.92604 0 0 0-0.92604-0.92604zm3.7042 0a0.92604 0.92604 0 0 0-0.92604 0.92604 0.92604 0.92604 0 0 0 0.01757 0.13229 0.92604 0.92604 0 0 1 0.90847-0.79375 0.92604 0.92604 0 0 1 0.90848 0.79375 0.92604 0.92604 0 0 0 0.01757-0.13229 0.92604 0.92604 0 0 0-0.92605-0.92604zm3.7042 0a0.92604 0.92604 0 0 0-0.92604 0.92604 0.92604 0.92604 0 0 0 0.01757 0.13229 0.92604 0.92604 0 0 1 0.90847-0.79375 0.92604 0.92604 0 0 1 0.90847 0.79375 0.92604 0.92604 0 0 0 0.01757-0.13229 0.92604 0.92604 0 0 0-0.92604-0.92604zm32.279 5.026v0.52917l0.68006 0.47387c0.2406 0.11981 0.39083 0.19523 0.47129 0.2837 0.14123-0.47343 0.0676-0.54453-0.47129-0.81287l-0.68006-0.47387zm-15.109 0.14366c-0.0768 0.18186-0.2372 0.3295-0.50178 0.38602-1.8417 0.0982-2.1167 0.79376-2.1167 1.3229 0 0.17886-0.35387 0.63207-0.94 0.94258-0.54353 0.28795-1.4868 1.0509-2.0965 1.6955 0 0-1.7508 1.8136-1.7622 1.8273-2e-3 3e-3 -0.00523 0.00475-0.00723 0.00775v0.52917c2e-3 -3e-3 0.00523-0.00475 0.00723-0.00775 0.0114-0.0137 1.7622-1.8273 1.7622-1.8273 0.60966-0.64462 1.553-1.4076 2.0965-1.6955 0.58613-0.31051 0.94-0.76371 0.94-0.94257 0-0.52916 0.27494-1.2247 2.1167-1.3229 0.49862-0.10653 0.64103-0.52719 0.50178-0.91519zm16.207 1.8464c-0.01547 0.04716-0.02166 0.07269-0.03979 0.12712-0.139 0.417 0.32091 0.78549 0.32091 0.78549l1.0015 0.46457v-0.52917l-1.0015-0.46457s-0.18283-0.16173-0.28112-0.38344z" fill="#edefec" opacity=".205" stroke-width=".83333"/></g><metadata id="metadata452"><rdf:RDF><cc:Work rdf:about=""><dc:creator><cc:Agent><dc:title>dekuuSkrb</dc:title></cc:Agent></dc:creator><dc:rights><cc:Agent><dc:title>dekuuSkrb</dc:title></cc:Agent></dc:rights><dc:identifier>eternalsmile</dc:identifier><dc:source>eternalsmile</dc:source></cc:Work></rdf:RDF></metadata></svg>
