<?xml version="1.0" encoding="UTF-8"?>
<!-- Created with Inkscape (http://www.inkscape.org/) -->
<svg id="svg446" width="95" height="95" version="1.1" viewBox="0 0 25.135 25.135" xml:space="preserve" xmlns="http://www.w3.org/2000/svg" xmlns:cc="http://creativecommons.org/ns#" xmlns:dc="http://purl.org/dc/elements/1.1/" xmlns:rdf="http://www.w3.org/1999/02/22-rdf-syntax-ns#" xmlns:xlink="http://www.w3.org/1999/xlink"><defs id="defs443"><linearGradient id="linearGradient11" x1="17.198" x2="22.49" y1="3.9687" y2="14.552" gradientTransform="matrix(.82609 0 0 .81897 -.57518 -.31248)" gradientUnits="userSpaceOnUse"><stop id="stop11" stop-color="#5c2653" offset="0"/><stop id="stop10" stop-color="#bc65ad" offset="1"/></linearGradient><linearGradient id="linearGradient1" x1="5.9401" x2="25.929" y1="23.151" y2="23.151" gradientTransform="matrix(.82609 0 0 .81897 -.57518 -.31248)" gradientUnits="userSpaceOnUse"><stop id="stop16" stop-color="#c8802a" offset="0"/><stop id="stop15" stop-color="#dca15e" offset=".078809"/></linearGradient></defs><g id="layer1"><path id="path6" d="m23.905 0.77094-4.8085 2.6002-2.458 1.5168-3.2248 0.86674-0.87428 0.86674-3.9342 2.8169-1.7486 1.7335-0.87428-0.86674-0.65571 2.8169-1.1972 0.65006 0.32292 1.3001-1.4144 3.2503-2.0827 5.8505h23.168v-23.402z" fill="#edefec" stroke-width="4.0653"/><path id="path9" d="m23.467 0.98763-5.0271 2.6002-1.7486 1.5168-0.65571 1.0834-3.9342 0.65005-3.9342 2.8169-0.87428 2.3835 0.87428 1.0834 15.956-11.484zm-19.174 14.947c-0.019226-7.81e-4 -0.039274 4.23e-4 -0.059765 0.0039l-3.06 8.234h3.06s1.2709-8.1886 0.059765-8.2378z" fill="#cf8ec4" stroke-width="4.0653"/><path id="path7" d="m23.905 1.421c-3.7157 1.7335-5.9014 3.9003-5.9014 3.9003-0.05669 0-3.1633 0.73075-4.1528 1.5168-4.5899 2.3835-5.9014 6.0672-5.9014 6.0672l2.6228 2.1668 7.8685 0.43337 0.43714 3.0336h1.9671v5.6338h3.06zm-19.453 16.035c-1.7486 4.117-1.7486 6.5005-1.7486 6.5005h3.2785s0.43714-5.4171-1.53-6.5005z" fill="url(#linearGradient11)" stroke-width="4.0653"/><path id="rect11" d="m4.332 13.339v1.3002h2.5239v-1.3002zm0.11989 1.9503v1.0831h1.9673v-1.0831zm0.28732 1.4371v1.3798h1.789v-1.3798zm14.357 1.8128-0.65577 0.65009-4.3713 0.21704-0.43718 1.0831 0.65577 0.86661-1.3115 0.65009 0.65577 0.86713 1.5301-0.21704-1.3115 1.3002h6.9944v-5.4172z" fill="url(#linearGradient1)" stroke-width="4.0653"/><path id="path15" d="m5.9819 13.555c-0.48452-0.03132-1.6501 0.53614-0.87428 1.2256l0.87428 0.72454c-1.0928-0.05406-0.97447 0.65006-0.65571 0.86674l1.0928 0.65005c-1.9671 0-0.87428 1.0834-0.87428 1.0834l-0.73233-0.46075-0.50395-4.0896s1.3865-0.21668 1.6734 0z" fill="#fff" fill-opacity=".35698" stroke-width="4.0653"/><path id="path5" d="m18.696 3.3466c-1.093 0.72862-2.2126 1.3244-2.4877 1.3245-0.60945-0.21686-3.3417 0.87404-3.451 1.3002-0.62305 0.1779-0.86581 0.36772-1.9668 1.1534-1.4629 1.0644-2.4046 1.8804-3.7161 3.3972l-0.87385-0.86661c-0.65571 0.65006-1.093 1.7331-1.093 3.2499 0 0 0.064677-0.03722-0.43667 0.15038-0.73573 0.27532-1.0934 1.15-0.4377 1.5834-2.0871 3.0254-2.6458 6.7924-3.9687 9.9674h24.077v-24.342c-0.39902 0.13301-3.3109 1.5256-5.6457 3.082zm-7.845-2.5756c-0.38836 0-0.28204 1.0415 0.29714 2.9125 0.1866 0.60277 0.37846 1.2238 0.42633 1.3803 0.04787 0.15652 0.19812 0.217 0.33383 0.13384 0.56441-0.34582-0.4103-4.4266-1.0573-4.4266zm12.501 0.65009c0.06353 0 0.11576 0.57675 0.11576 1.2821 0 1.2147-0.03718 1.3052-0.71003 1.71-0.39069 0.23502-1.2514 0.70618-1.9125 1.047l-1.2025 0.6196-1.1581-0.58188-1.1586-0.58188 1.5958-1.0676c1.4141-0.94577 4.1182-2.4272 4.4302-2.4272zm-16.834 2.3709c-0.37064 0.064723-0.15042 0.99266 0.48214 2.0309 0.36028 0.59133 0.77879 1.0154 1.0025 1.0154 0.21125 0 0.38396-0.040655 0.38396-0.089917 0-0.29885-1.6985-2.9861-1.8686-2.9564zm9.8464 1.4686-0.58084 0.46354c-0.33165 0.26474-0.89171 0.46405-1.3053 0.46405-0.71965 0-0.72116-0.00221-0.23616-0.339 0.26855-0.18648 0.85593-0.39549 1.3053-0.46405zm7.1034 0.00672-0.0031 1.2728c-0.0017 0.70016-0.05961 1.4833-0.12919 1.7405-0.1204 0.44494-0.96066 0.88382-0.96066 0.50178 0-0.10008-0.47596-0.66662-1.0578-1.2588l-1.0578-1.0764 0.91571-0.4532c0.50362-0.24935 1.2258-0.51504 1.6046-0.59014zm-20.423 1.3539c-0.63566 0-0.34505 0.58361 0.84801 1.7022 1.1669 1.0941 1.8712 1.403 1.8712 0.82114 0-0.397-2.2914-2.5234-2.7192-2.5234zm11.966 0.081132c0.98091-0.028414 1.7475 0.27026 3.4814 1.1622 1.4136 0.72718 2.8853 2.0337 4.3072 3.8246l0.66869 0.84233v11.208h-2.2536l0.13849-3.3047c0.14066-3.357-0.05302-5.3989-0.6444-6.8022-0.28005-0.66447-0.84904-0.90589-0.84904-0.90589s0.76571 2.4782-0.64079 3.6354c-0.29781 0.24503-0.34055 0.17923-0.34055-0.5209 0-0.69732-0.06353-0.79508-0.49196-0.76068-0.41326 0.03318-1.2568-0.0088-1.2568-0.0088s0.2684-0.12016 0.35553-0.25993c0.4205-0.67451-0.13656-4.29-1.448-3.8566-0.09659-0.53682 1.3111-1.0835 2.404 0.86661 0 0 0.4372-3.5e-5 0.65577-0.65009-4.5899-4.7671-5.027 2.8166-3.9341 3.9l-0.32814 1e-3 -1.4206-0.0155c-0.78138-0.0086-1.8464-0.18087-1.8464-0.18087l-1.4356-0.60926s-0.60281-0.32115-0.85576-0.58808c-0.43841-0.4626-0.44379-0.52315-0.11524-1.3027 0.44049-1.0451 0.27869-1.2094-0.35502-0.35967-0.37996 0.50949-0.56136 0.60782-0.78445 0.42426-0.68999-0.56771-0.32524-1.3105 1.5012-3.0567 2.0982-2.006 2.4705-2.2227 4.3915-2.5544 0.41823-0.072204 0.7696-0.11817 1.0966-0.12764zm-3.3254 1.7503c-0.38044 0.01371-0.76213 0.22373-1.0997 0.73639-0.60571 0.99138-0.87265 3.2461-0.38861 4.3946 0.81261 1.766 2.3425 1.0551 2.3425-0.89504 0-1.5294-0.36183-3.2501-1.2361-3.0334 0.87428-1.0829 1.8919 1.2997 1.8919 1.2997 0.65571-0.21617 0.50953-0.86713 0.50953-0.86713-0.35002-0.7445-1.1826-1.6652-2.0195-1.635zm-5.4839 2.5022c0.65571 1.0834 1.7485 2.8173 4.1527 4.3341-0.01601 2.4596 0 5.6825 0 8.2336 0 0.11908-0.43694 0.21706-0.44132-1.0289-0.0024-0.20856-0.14847-1.6958-0.32401-3.3047-0.17554-1.6089-0.3211-3.0146-0.3235-3.1238-0.0024-0.10925-0.05214-0.15096-0.1111-0.0925-0.13227 0.13113 0.2593 5.3721 0.46095 6.1686 0.05783 0.22844 0.0832 1.3813 0.0832 1.3813-1.2127 0.21669-1.7484 0.21681-3.4969-0.86661v-2.5936c3e-7 -1.5032 0.052485-1.7617 0.46405-2.0381 0.84686-0.56873 0.11781-1.4351-0.24546-1.4351 0.65571-0.21668 0.65568-1.3005-0.21859-1.5172 1.4875-0.34927 1.0871-1.6409 0.43718-1.9498-0.84697-0.42735-0.65575-1.5173-0.43718-2.1673zm-0.70332 2.5694c0.62398 0.0079 1.2821 0.2067 1.2495 0.46457-0.10928 0.86674-2.1337 0.70125-2.295 0.21652-0.16843-0.50644 0.42143-0.68907 1.0454-0.6811zm5.3506 1.8216c0.21857 0.21668 0.59841 0.3762 0.59841 0.3762 0.129 1.6946 0.32732 5.4878 0 8.0176 0 0-0.33383 0.33745-0.59841-0.19172zm-5.578 0.07441c0.53788-0.02345 1.2039 0.19364 0.93069 0.73536-0.21857 0.43337-1.5301-2.27e-4 -1.5301-0.45165 2e-7 -0.16929 0.27672-0.26963 0.59945-0.2837zm12.733 0.30179s0.0063 0.92451 0.13074 1.8893l0.1757 1.3612c-1.836 0-4.1057-0.2168-4.6829 0.43822-0.99498 1.129 0.22376 1.7286 0.22376 1.7286-2.4043 0.86674-0.43709 2.3836 0.43718 1.9503-0.21857 0.43337-0.955 0.64942-1.3658 0.64957l-0.75086 0.0088 0.03617-4.1372-0.03617-3.8824zm-13.5 0.66818c0.093668-0.01184 0.09811 0.18775-0.050126 0.6289-0.21941 0.65298 0.15385 1.3033 0.65474 1.3033-0.22299 1.0415-2.45e-4 1.7337-0.16278 3.1104-0.10012 0.84804 0.18199 1.719 0.26923 1.9275 0.14306 0.34197-0.00672 0.3793-1.5281 0.3793h-1.6872l0.14883-0.786c0.24055-1.2712 1.1941-4.4024 1.6852-5.534 0.2817-0.64918 0.54981-1.0142 0.67024-1.0294zm1.0087 0.45682c0.090488 0.0048 0.1964 0.02097 0.32143 0.04806 0.58555 0.12693 0.80419 0.34404 0.48886 0.68678-0.66656 0.72451-1.5855 0.3031-1.2929-0.45269 0.080325-0.20752 0.21119-0.29644 0.48266-0.28215zm13.584 2.1255c0.56118 0 0.8306 0.6039 0.99322 1.3069 0.15407 0.66602 0.21253 1.421 0.33331 1.835 0.17986 0.6165 0.17175 0.62752-0.14934 0.21652-0.18622-0.23835-0.9586-1.1917-0.9586-1.1917s-4.4e-5 0.21688-0.43718 0.43357c0 0 0.07736 0.16781 0.53588 0.76378 0.31151 0.39358 0.99423 0.96929 0.77566 1.186-0.21857 0.21669-0.82641-0.1194-1.2165-0.54157-0.2857-0.30922-0.75086-0.97513-0.75086-0.97513s-4.6e-5 0.21688-0.43718 0.43356c0.34853 0.67091 0.87436 1.1317 0.87436 1.1317-0.65571 0.16853-1.5301-0.04825-1.5301-0.48162-0.21857 0.43337-1.3674 0.64714-1.8516 0.64337-0.84081-0.0065-0.86092-0.02234-0.44338-0.3483 0.74305-0.58008 1.216-0.68267 2.0764-1.5953 0 0-3.0598 1.1974-3.2784 0.43356-0.21857-0.76384 2.7987-1.2372 3.7155-1.9503-0.79564-0.0032-3.2784 0.6497-3.2784-0.21704 0-0.86674 4.5899-0.43305 4.5899-0.43305 0.43714 0 0.43718-0.65009 0.43718-0.65009z" fill="#272826" stroke-width=".82252"/><path id="text5" d="m13.011 16.455c-0.04197-0.12481-0.03731-0.18953 0.10258-0.20802 0.01398 0 0.05129 0 0.05129-0.03698v-0.11094l-0.01865-0.0092s-0.30308 0.0092-0.49892 0.0092c-0.19118 0-0.49426-0.0092-0.49426-0.0092l-0.01398 0.0092v0.11556c0 0.02311 0.02331 0.02774 0.05129 0.03236 0.20982 0.02311 0.26578 0.13406 0.33572 0.30971l0.55021 1.4006c0.05129 0.12943 0.10724 0.20339 0.24713 0.20339 0.11657 0 0.16786-0.10632 0.21449-0.21726l0.34505-0.85056 0.34038 0.86443c0.03731 0.08783 0.09326 0.20339 0.24247 0.20339 0.11191 0 0.16786-0.08783 0.21449-0.20802l0.58285-1.433c0.06527-0.15255 0.13522-0.24962 0.33572-0.27273 0.02798-0.0046 0.05129-0.0185 0.05129-0.0416v-0.10632l-0.0093-0.0092s-0.19118 0.0092-0.31707 0.0092c-0.20516 0-0.52223-0.0092-0.52223-0.0092l-0.01865 0.01386v0.11094c0 0.01386 0.01398 0.02774 0.03731 0.03236l0.01865 0.0046c0.21915 0.05547 0.24247 0.06472 0.19118 0.21264l-0.43364 1.1834-0.43364-1.1926c-0.05129-0.13406-0.04663-0.18028 0.09792-0.19877l0.07928-0.0092c0.01398 0 0.04197-0.0092 0.04197-0.03698v-0.11094l-0.01865-0.0092s-0.34505 0.0092-0.56886 0.0092c-0.18651 0-0.4756-0.0092-0.4756-0.0092l-0.01398 0.0092v0.11556c0 0.02311 0.02332 0.02774 0.04663 0.03236 0.13988 0.01386 0.21915 0.05547 0.28443 0.21726l0.14455 0.36056-0.33106 0.8182zm3.6743 0c-0.04197-0.12481-0.03731-0.18953 0.10258-0.20802 0.01398 0 0.05129 0 0.05129-0.03698v-0.11094l-0.01865-0.0092s-0.30308 0.0092-0.49892 0.0092c-0.19118 0-0.49426-0.0092-0.49426-0.0092l-0.01398 0.0092v0.11556c0 0.02311 0.02331 0.02774 0.05129 0.03236 0.20983 0.02311 0.26578 0.13406 0.33572 0.30971l0.55021 1.4006c0.05129 0.12943 0.10724 0.20339 0.24713 0.20339 0.11657 0 0.16786-0.10632 0.21449-0.21726l0.34505-0.85056 0.34038 0.86443c0.03731 0.08783 0.09326 0.20339 0.24246 0.20339 0.11191 0 0.16786-0.08783 0.21449-0.20802 0.31577-0.56455 0.54813-2.03-0.08393-0.30513l-0.43364-1.1926c-0.05129-0.13406-0.04663-0.18028 0.09792-0.19877l0.07927-0.0092c0.01398 0 0.04197-0.0092 0.04197-0.03698v-0.11095l-0.01865-0.0092s-0.34505 0.0092-0.56886 0.0092c-0.18651 0-0.47561-0.0092-0.47561-0.0092l-0.01398 0.0092v0.11556c0 0.02311 0.02331 0.02774 0.04662 0.03236 0.13988 0.01386 0.21915 0.05547 0.28443 0.21726l0.14455 0.36056-0.33106 0.8182z" fill="#272826" stroke-width="4.0653" aria-label="ww"/><path id="path76" d="m24.342 0.26458c-0.39902 0.13301-3.3109 1.5256-5.6456 3.082-1.093 0.72862-2.2126 1.3244-2.4877 1.3245-0.60945-0.21686-3.3417 0.87404-3.451 1.3002-0.62305 0.1779-0.86581 0.36772-1.9668 1.1534-1.4629 1.0644-2.4046 1.8804-3.7161 3.3972l-0.87385-0.86661c-0.65571 0.65006-1.093 1.7331-1.093 3.2499 0 0 0.064677-0.03722-0.43667 0.15038-0.54208 0.20285-0.87697 0.73054-0.75448 1.1679 0.08264-0.32806 0.36415-0.64304 0.75448-0.7891 0.50134-0.1876 0.43667-0.15038 0.43667-0.15038 0-1.5168 0.43725-2.5999 1.093-3.2499l0.87385 0.86661c1.3114-1.5168 2.2532-2.3328 3.7161-3.3972 1.101-0.7857 1.3438-0.97552 1.9668-1.1534 0.10928-0.42614 2.8415-1.517 3.451-1.3002 0.27509-9.4e-5 1.3947-0.59585 2.4877-1.3245 2.3348-1.5564 5.2466-2.949 5.6456-3.082zm-13.491 0.50643c-0.18718 0-0.25673 0.2473-0.21652 0.70745 0.02312-0.20931 0.09135-0.32866 0.21652-0.32866 0.48262 0 1.1466 2.2694 1.219 3.5667 0.071723-1.1623-0.68424-3.9455-1.219-3.9455zm12.612 2.1027c-0.0061 1.023-0.07273 1.1586-0.7059 1.5394-0.39069 0.23502-1.2514 0.70618-1.9125 1.047l-1.2025 0.6196-1.1581-0.58188-0.83509-0.41961-0.3235 0.21652 1.1586 0.58188 1.1581 0.58188 1.2025-0.6196c0.66117-0.34079 1.5219-0.81194 1.9125-1.047 0.67285-0.40476 0.71003-0.49523 0.71003-1.71 0-0.073795-3e-3 -0.13779-0.0041-0.20826zm-16.946 0.91829c-0.16291 0.028447-0.20577 0.2301-0.15555 0.52813 0.027409-0.08252 0.077837-0.13578 0.15555-0.14934 0.14323-0.025011 1.3593 1.8622 1.7436 2.6422 0.075244-0.01647 0.12506-0.03884 0.12506-0.064596 0-0.29885-1.6985-2.9861-1.8686-2.9564zm16.949 1.8542-0.0021 0.894c-0.0017 0.70016-0.05961 1.4833-0.12919 1.7405-0.1204 0.44494-0.96066 0.88382-0.96066 0.50178 0-0.10008-0.47596-0.66662-1.0578-1.2588l-0.80719-0.82166-0.25063 0.12402 1.0578 1.0764c0.58185 0.59222 1.0578 1.1588 1.0578 1.2588 0 0.38204 0.84026-0.056834 0.96066-0.50178 0.06958-0.25713 0.12749-1.0403 0.12919-1.7405l0.003134-1.2728zm-20.422 0.97513c-0.32024 0-0.40425 0.1487-0.25735 0.43873 0.054338-0.039699 0.13966-0.059945 0.25735-0.059945 0.38752 0 2.2987 1.7411 2.6562 2.3647 0.040578-0.047904 0.063045-0.11989 0.063045-0.22014 0-0.397-2.2914-2.5234-2.7192-2.5234zm1.0315 8.26c-1.9554 2.9829-2.523 6.6335-3.8111 9.725h0.1509c1.2166-3.0929 1.8128-6.6822 3.8179-9.5886-0.06257-0.041354-0.11295-0.08794-0.15761-0.13643zm1.1033 8.7555c-0.15285 0.08802-0.56662 0.10284-1.4929 0.10284h-1.6154l-0.07183 0.37879h1.6872c1.5214 0 1.6711-0.03734 1.5281-0.3793-0.00827-0.01977-0.02386-0.07123-0.03514-0.10232zm16.051 0.10284-0.01602 0.37879h2.2536v-0.37879h-1.1271z" fill="#edefec" opacity=".19951" stroke-width=".82252"/><path id="path80" d="m23.352 1.4211c-0.312 0-3.0161 1.4815-4.4302 2.4272l-1.5958 1.0676 0.3235 0.16226 1.2723-0.85111c1.4141-0.94577 4.1182-2.4272 4.4302-2.4272 0.056883 0 0.10224 0.47078 0.11162 1.0738 3.81e-4 -0.064111 0.004134-0.098896 0.004134-0.17053 0-0.70534-0.052225-1.2821-0.11576-1.2821zm-12.717 0.057361c-0.048613 0.44007 0.12117 1.3159 0.51366 2.5838 0.1866 0.60277 0.37847 1.2238 0.42633 1.3803 0.04787 0.15652 0.19812 0.217 0.33383 0.13384 0.1434-0.08786 0.18643-0.41804 0.16175-0.8599-0.015045 0.24383-0.063876 0.42114-0.16175 0.48111-0.13571 0.083153-0.28596 0.022683-0.33383-0.13384-0.047865-0.15652-0.23973-0.77751-0.42633-1.3803-0.30003-0.9692-0.47045-1.7105-0.51366-2.205zm-4.2726 2.8417c-0.10332 0.31107 0.13774 1.061 0.63769 1.8815 0.36028 0.59133 0.77879 1.0154 1.0025 1.0154 0.21125 0 0.38396-0.040655 0.38396-0.089917 0-0.047259-0.052871-0.16767-0.12506-0.31419-0.068674 0.015032-0.1581 0.025321-0.2589 0.025321-0.22373 0-0.64224-0.42412-1.0025-1.0154-0.35454-0.5819-0.57364-1.1227-0.63769-1.5028zm10.002 0.94051-0.817 0.12454c-0.44942 0.068564-1.0368 0.27758-1.3053 0.46405-0.43733 0.30368-0.44818 0.33364 0.075448 0.33693 0.29008-0.17492 0.81379-0.35871 1.2299-0.4222l0.22841-0.034623c0.002294-0.0018078 0.005479-0.0033537 0.007752-0.0051677l0.58084-0.46354zm7.1034 0.0067179-0.68833 0.13643c-0.37876 0.0751-1.1009 0.34079-1.6046 0.59014l-0.91571 0.4532 0.25063 0.25476 0.66508-0.32918c0.50362-0.24935 1.2258-0.51504 1.6046-0.59014l0.6873-0.13643 0.001034-0.37879zm-8.4574 1.4351c-0.32697 0.0094716-0.67834 0.055437-1.0966 0.12764-1.921 0.33164-2.2932 0.54834-4.3915 2.5544-1.4147 1.3525-1.9494 2.102-1.7994 2.6355 0.12156-0.50596 0.68931-1.1954 1.7994-2.2567 2.0982-2.006 2.4705-2.2227 4.3915-2.5544 0.41823-0.072204 0.76961-0.11817 1.0966-0.12764 0.98091-0.028414 1.7475 0.27026 3.4814 1.1622 1.4136 0.72718 2.8853 2.0337 4.3072 3.8246l0.66869 0.84233v-0.37879l-0.66869-0.84233c-1.422-1.7908-2.8936-3.0974-4.3072-3.8246-1.7339-0.89194-2.5005-1.1906-3.4814-1.1622zm-12.223 0.3576c-0.23916 0.17473 0.13318 0.73076 1.1054 1.6423 1.1669 1.0941 1.8712 1.403 1.8712 0.82114 0-0.037374-0.025896-0.093836-0.063045-0.15865-0.19494 0.23014-0.84232-0.13571-1.8082-1.0413-0.592-0.55506-0.96067-0.97782-1.1054-1.2635zm9.015 2.313c-0.16635-0.0020718-0.33527 0.079107-0.49919 0.28215 0.18145-0.044972 0.33936-0.002652 0.47801 0.10025 0.72882-0.022124 1.4139 1.5782 1.4139 1.5782 0.65571-0.21617 0.50953-0.86713 0.50953-0.86713-0.003094-0.006581-0.007683-0.013546-0.010852-0.020154-0.046671 0.1883-0.1743 0.40156-0.49868 0.5085 0 0-0.67182-1.5728-1.3927-1.5818zm4.8188 1.0821c-0.38128 0.028732-0.62672 0.26537-0.58446 0.50023 0.09106-0.030092 0.17829-0.039167 0.262-0.032556 0.44572-0.22932 1.3711-0.097682 2.142 1.278 0 0 0.4372-3.6e-5 0.65577-0.65009-0.041288-0.042881-0.079788-0.077442-0.12041-0.11834-0.22822 0.38448-0.53537 0.38964-0.53537 0.38964-0.61472-1.097-1.3293-1.4038-1.8195-1.3668zm-10.42 0.49971c-0.11199 0.33308-0.21405 0.78109-0.1757 1.1968 0.024792-0.29515 0.097384-0.58512 0.1757-0.81804 0.65565 1.0833 1.7484 2.8169 4.1522 4.3336 6.09e-4 -0.11708-2.25e-4 -0.26432 5.17e-4 -0.37827-2.4043-1.5168-3.497-3.2507-4.1527-4.3341zm3.1543 0.89659c-0.0010196-6.2e-5 -0.002569 5.28e-4 -0.0036173 5.17e-4 -0.040731 0.13961-0.10011 0.30839-0.1912 0.52452-0.20796 0.49343-0.28111 0.69913-0.19637 0.90072 0.036583-0.13278 0.10065-0.29482 0.19637-0.52193 0.24777-0.58789 0.30497-0.89705 0.19482-0.90382zm0.59996 0.33176c-0.022503 0.66916 0.04569 1.315 0.24133 1.7792 0.079649 0.17309 0.16758 0.31568 0.2589 0.44235l1.1116 0.4718s0.10931 0.014752 0.13074 0.018087c0.47168-0.21347 0.84129-0.86971 0.84129-1.8273 0-0.078762-0.005295-0.15874-0.007235-0.23823-0.07332 1.8401-1.543 2.4762-2.3353 0.75448-0.15804-0.37499-0.22905-0.87207-0.24133-1.4004zm4.7134 0.89297c-0.031425 0.77931 0.067167 1.5247 0.26303 1.9963l0.23048-5.17e-4c-0.30228-0.29969-0.48084-1.1003-0.49351-1.9957zm5.1904 0.029455s0.17738 0.58628 0.20257 1.3183c0.023434-0.49093-0.038592-0.94771-0.10025-1.2645-0.061655-0.035699-0.10232-0.053744-0.10232-0.053744zm-14.361 0.41858c-0.62398-0.007972-1.2138 0.17465-1.0454 0.6811 0.0040763 0.012256 0.014273 0.023303 0.020671 0.03514 0.13945-0.2467 0.57124-0.34324 1.0247-0.33745 0.48045 0.006083 0.97782 0.12591 1.1679 0.29817 0.040175-0.06327 0.071497-0.13188 0.081649-0.21239 0.032514-0.25787-0.62556-0.45667-1.2495-0.46457zm12.119 0.67179c-0.013366 0.27347-0.056156 0.49385-0.13229 0.61598-0.087138 0.13978-0.35553 0.25993-0.35553 0.25993s0.1949 0.008317 0.39998 0.01447c0.074192-0.19683 0.10319-0.514 0.08785-0.89038zm-13.7 0.027388c-0.058264 0.2313-0.015924 0.46778 0.15916 0.65784 0.052853-0.080624 0.10268-0.16274 0.15761-0.24236-0.17259-0.11407-0.27302-0.25924-0.31678-0.41548zm3.2825 0.035657c-0.074363 0.34281-0.36338 0.66377-0.99839 0.81287 0.17863 0.044272 0.31883 0.12602 0.42633 0.22789 0.51295-0.25288 0.64677-0.66616 0.57206-1.0408zm3.6489 1.0868v0.37879c0.21857 0.21668 0.59841 0.3762 0.59841 0.3762 0.076457 1.0044 0.17494 2.7475 0.17622 4.5263 0.014508-1.9076-0.094309-3.8291-0.17622-4.9051 0 0-0.37984-0.15952-0.59841-0.3762zm-5.578 0.074414c-0.32273 0.014071-0.59945 0.11442-0.59945 0.2837 0 0.077621 0.040606 0.15461 0.10594 0.22686 0.10843-0.074987 0.28719-0.12278 0.49351-0.13177 0.37354-0.016286 0.8019 0.086832 0.94154 0.33073 0.23835-0.52217-0.41258-0.73258-0.94154-0.70952zm12.733 0.30179-5.8322 0.006201 0.003617 0.37879 5.8286-0.006201s0.0063 0.92451 0.13074 1.8893l0.12661 0.98134c0.015875 3.1e-5 0.033281 0.001033 0.049093 0.001033l-0.1757-1.3612c-0.12444-0.96478-0.13074-1.8893-0.13074-1.8893zm-11.139 0.36535c-0.053604 0.22659-0.20496 0.42248-0.44493 0.50178 0.092562 0 0.20832 0.057143 0.31626 0.15038 0.13552-0.1787 0.18295-0.42167 0.12867-0.65216zm-2.3611 0.30282c-0.12043 0.015225-0.38855 0.38022-0.67024 1.0294-0.49104 1.1316-1.4446 4.2628-1.6852 5.534l-0.14883 0.786h0.07183l0.076998-0.40721c0.24055-1.2712 1.1941-4.4024 1.6852-5.534 0.2817-0.64918 0.54981-1.0142 0.67024-1.0294 0.0082063-0.001037 0.01491 0.001906 0.021704 0.004134 0.067199-0.26602 0.051846-0.39222-0.021704-0.38292zm4.6297 0.096635c-0.048616 0.81786 0.29614 5.3006 0.48162 6.0332 0.039829 0.15734 0.059446 0.6489 0.070797 1.0046 0.0043896-7.82e-4 0.0079949-0.00128 0.012402-0.002067 0 0-0.025369-1.1529-0.083199-1.3813-0.16679-0.65881-0.45886-4.3208-0.48162-5.6544zm-3.621 0.36018c-0.27146-0.014288-0.40233 0.074635-0.48266 0.28215-0.067829 0.17524-0.068466 0.33127-0.024288 0.46044 0.0075966-0.027098 0.013426-0.053587 0.024288-0.081649 0.080325-0.20752 0.21119-0.29644 0.48266-0.28215 0.090488 0.0048 0.1964 0.020969 0.32143 0.048059 0.26377 0.057179 0.44818 0.13398 0.54777 0.23099 0.21411-0.29779-0.0082703-0.49283-0.54777-0.60978-0.12502-0.02709-0.23094-0.043259-0.32143-0.048059zm1.5183 0.72502c-0.047252 0.15719-0.15886 0.3135-0.36535 0.45217-0.41157 0.2764-0.46405 0.53487-0.46405 2.0381v0.37879c3e-7 -1.5032 0.052485-1.7617 0.46405-2.0381 0.37568-0.2523 0.44042-0.56314 0.36535-0.83096zm-2.621 0.01912c-0.091149 0.55378 0.21657 1.0521 0.63562 1.0997 0.015462-0.11892 0.035749-0.24096 0.063045-0.36845-0.34921 0-0.63112-0.3185-0.69867-0.73122zm16.983 0.89142c8.39e-4 0.59995-0.010485 1.2406-0.040307 1.9523l-0.13849 3.3047h0.01602l0.12247-2.9259c0.036059-0.86058 0.04926-1.632 0.040307-2.3311zm-2.2965 0.48989s-4.5e-5 0.65009-0.43718 0.65009c0 0-4.5899-0.43369-4.5899 0.43305 0 0.0848 0.029755 0.15103 0.07338 0.20877 0.57902-0.63467 4.5165-0.26303 4.5165-0.26303 0.43714 0 0.43718-0.65009 0.43718-0.65009 0.56118 0 0.8306 0.6039 0.99322 1.3069 0.15407 0.66602 0.21253 1.421 0.33331 1.835 0.004168 0.014288 0.005336 0.018916 0.009301 0.032556 0.15073 0.1732 0.13182 0.072393-0.009301-0.41134-0.12078-0.41401-0.17924-1.169-0.33331-1.835-0.16262-0.703-0.43204-1.3069-0.99322-1.3069zm-8.7483 0.59014c0.001723 1.3662 0.00452 2.7151 0.005168 3.961 9e-6 -3.82e-4 5.17e-4 -6.5e-4 5.17e-4 -0.001033 0-1.2168-0.003612-2.5932-0.005685-3.96zm1.8578 0.2434-0.034623 3.9419h0.0031l0.033073-3.7584-0.00155-0.18345zm-7.2006 0.20567c0.0019727 0.16967-3.164e-4 0.35563 0.0010336 0.5395 0.0045515-0.19484 0.0014425-0.36608-0.0010336-0.5395zm8.2548 0.43977c-0.079069 0.36967 0.087483 0.64676 0.26613 0.82527 0.099973-0.046845 0.20288-0.093606 0.32453-0.13746 0 0-0.47743-0.23521-0.59066-0.68781zm4.0876 0.19999c-0.21865-8.79e-4 -0.56804 0.048222-0.95498 0.10129-1.2292 0.47727-2.9266 0.89009-2.7606 1.4702 0.011636 0.040666 0.032576 0.074879 0.059428 0.1049 0.44363-0.61206 2.8539-1.0524 3.6561-1.6764zm1.7095 1.1942c-0.050368 0.034871-0.10701 0.070093-0.17932 0.10594 0 0 0.07736 0.16781 0.53588 0.76378 0.19998 0.25266 0.55056 0.5791 0.71985 0.83871 0.018978-0.009926 0.040461-0.016306 0.05581-0.031522 0.21857-0.21668-0.46415-0.79239-0.77566-1.186-0.18596-0.2417-0.27573-0.3727-0.35657-0.49093zm-14.125 0.17415c-0.034066 0.6975 0.14956 1.3469 0.24753 1.617 0.098185-0.056542 0.091092-0.14272 0.03514-0.27647-0.066917-0.15996-0.24687-0.7104-0.28267-1.3405zm11.979 0.14831s-0.27866 0.10613-0.65836 0.23306c-0.49369 0.39502-0.88806 0.56969-1.418 0.9834-0.33372 0.26052-0.36518 0.32112 0.05581 0.339 0.70918-0.54015 1.1835-0.66758 2.0205-1.5555zm-4.1765 0.20981c-0.17139 0.55216 0.4557 1.0697 1.0418 1.1519 0.22188-0.10641 0.41695-0.2516 0.51211-0.44028-0.50818 0.2519-1.3804-0.15632-1.5539-0.71158zm5.2162 0.34416c-0.047274 0.031677-0.10002 0.063724-0.16536 0.096118 0.17026 0.32775 0.38209 0.60274 0.555 0.80098 0.10887-0.00817 0.21699-0.021749 0.31936-0.04806 0 0-0.38064-0.33582-0.709-0.84904zm-17.534 1.8841c-0.0498 0.12661-0.098871 0.25393-0.1509 0.37879h24.077v-0.37879h-23.926z" fill="#272826" opacity=".2" stroke-width=".82252"/></g><metadata id="metadata452"><rdf:RDF><cc:Work rdf:about=""><dc:creator><cc:Agent><dc:title>dekuuSkrb</dc:title></cc:Agent></dc:creator><dc:rights><cc:Agent><dc:title>dekuuSkrb</dc:title></cc:Agent></dc:rights><dc:identifier>eternalsmile</dc:identifier><dc:source>eternalsmile</dc:source></cc:Work></rdf:RDF></metadata></svg>
