<svg width="95" height="95" viewBox="0 0 25.135 25.135" xml:space="preserve" xmlns:xlink="http://www.w3.org/1999/xlink" xmlns="http://www.w3.org/2000/svg">
  <defs>
    <linearGradient id="b">
      <stop style="stop-color:#c8802a;stop-opacity:1" offset="0"/>
      <stop style="stop-color:#dca15e;stop-opacity:1" offset=".079"/>
    </linearGradient>
    <linearGradient id="a">
      <stop style="stop-color:#5c2653;stop-opacity:1" offset="0"/>
      <stop style="stop-color:#bc65ad;stop-opacity:1" offset="1"/>
    </linearGradient>
    <linearGradient xlink:href="#a" id="c" x1="17.198" y1="3.969" x2="22.49" y2="14.552" gradientUnits="userSpaceOnUse" gradientTransform="matrix(.82609 0 0 .81897 -.575 -.312)"/>
    <linearGradient xlink:href="#b" id="d" gradientUnits="userSpaceOnUse" x1="5.94" y1="23.151" x2="25.929" y2="23.151" gradientTransform="matrix(.82609 0 0 .81897 -.575 -.312)"/>
  </defs>
  <g/>
  <g style="fill:#20221f">
    <path style="opacity:1;fill:#edefec;fill-opacity:1;stroke-width:4.06532" d="m23.905.77-4.809 2.601-2.458 1.517-3.225.867-.874.866-3.934 2.817-1.749 1.734-.874-.867-.656 2.817-1.197.65.323 1.3-1.415 3.25-2.082 5.85h23.168V.772Z"/>
    <path style="opacity:1;fill:#cf8ec4;fill-opacity:1;stroke-width:4.06532" d="m23.467.988-5.027 2.6-1.748 1.517-.656 1.083-3.934.65-3.934 2.817-.875 2.384.875 1.083L24.123 1.638ZM4.293 15.935q-.03-.001-.06.004l-3.06 8.234h3.06s1.271-8.189.06-8.238"/>
    <path style="opacity:1;fill:url(#c);fill-opacity:1;stroke-width:4.06532" d="M23.905 1.421c-3.716 1.733-5.902 3.9-5.902 3.9-.057 0-3.163.731-4.153 1.517-4.59 2.384-5.901 6.067-5.901 6.067l2.623 2.167 7.868.433.437 3.034h1.968v5.634h3.06zM4.452 17.456c-1.749 4.117-1.749 6.5-1.749 6.5h3.279s.437-5.417-1.53-6.5"/>
    <path style="fill:url(#d);fill-opacity:1;stroke-width:4.06531" d="M4.332 13.339v1.3h2.524v-1.3Zm.12 1.95v1.083h1.967V15.29zm.287 1.437v1.38h1.79v-1.38zm14.357 1.813-.656.65-4.371.217-.437 1.083.655.867-1.311.65.656.867 1.53-.217-1.312 1.3h6.995V18.54z"/>
    <path style="opacity:1;fill:#fff;fill-opacity:.356977;stroke-width:4.06532" d="M5.982 13.555c-.485-.031-1.65.536-.874 1.226l.874.724c-1.093-.054-.975.65-.656.867l1.093.65c-1.967 0-.874 1.084-.874 1.084l-.733-.461-.504-4.09s1.387-.216 1.674 0"/>
    <path style="display:inline;fill:#272826;fill-opacity:1;stroke-width:.822519" d="M18.696 3.347c-1.093.728-2.213 1.324-2.488 1.324-.61-.217-3.341.874-3.45 1.3-.624.178-.866.368-1.967 1.154-1.463 1.064-2.405 1.88-3.716 3.397L6.2 9.655c-.656.65-1.093 1.733-1.093 3.25 0 0 .064-.037-.437.15-.736.276-1.093 1.15-.438 1.584-2.087 3.025-2.645 6.792-3.968 9.967h24.077V.265c-.4.133-3.311 1.525-5.646 3.082M10.851.77c-.388 0-.282 1.042.297 2.912.187.603.379 1.224.426 1.38.048.157.199.218.334.135.565-.346-.41-4.427-1.057-4.427m12.5.65c.064 0 .116.577.116 1.282 0 1.215-.037 1.305-.71 1.71-.39.235-1.251.706-1.912 1.047l-1.203.62-1.158-.582-1.158-.582 1.595-1.068c1.414-.945 4.119-2.427 4.43-2.427M6.518 3.792c-.37.065-.15.993.483 2.03.36.592.778 1.016 1.002 1.016.211 0 .384-.04.384-.09 0-.298-1.698-2.986-1.869-2.956m9.847 1.469-.581.463c-.332.265-.892.464-1.305.464-.72 0-.721-.002-.236-.339.268-.186.855-.395 1.305-.464zm7.103.006-.003 1.273c-.001.7-.06 1.484-.129 1.74-.12.446-.96.884-.96.502 0-.1-.477-.666-1.058-1.258L20.26 6.447l.915-.453c.504-.25 1.226-.515 1.605-.59ZM3.044 6.621c-.635 0-.345.584.848 1.703 1.167 1.094 1.871 1.403 1.871.82 0-.396-2.291-2.523-2.719-2.523m11.966.081c.98-.028 1.747.27 3.481 1.163 1.414.727 2.886 2.033 4.308 3.824l.749 1.011v5.556l-.08 5.484h-2.254l.138-3.305c.14-3.357-.053-5.399-.644-6.802a1.78 1.78 0 0 0-.85-.906s.766 2.478-.64 3.635c-.298.245-.34.18-.34-.52 0-.698-.064-.796-.493-.761-.413.033-1.256-.01-1.256-.01s.268-.12.355-.259c.42-.675-.136-4.29-1.448-3.857-.096-.536 1.311-1.083 2.404.867 0 0 .437 0 .656-.65-4.59-4.767-5.027 2.816-3.934 3.9h-.328l-1.42-.015c-.782-.008-1.847-.18-1.847-.18l-1.436-.61s-.603-.32-.856-.588c-.438-.462-.443-.523-.115-1.302.44-1.046.279-1.21-.355-.36-.38.51-.561.608-.784.424-.69-.568-.326-1.31 1.5-3.057 2.1-2.006 2.471-2.222 4.392-2.554.419-.072.77-.118 1.097-.128m-3.325 1.75c-.38.014-.763.224-1.1.737-.606.991-.873 3.246-.389 4.395.813 1.766 2.343 1.055 2.343-.895 0-1.53-.362-3.25-1.236-3.034.874-1.083 1.892 1.3 1.892 1.3.655-.216.51-.867.51-.867-.35-.745-1.183-1.665-2.02-1.635M6.2 10.956c.655 1.083 1.748 2.817 4.152 4.334-.016 2.46 0 5.682 0 8.234 0 .119-.437.217-.44-1.03-.003-.208-.15-1.695-.325-3.304a161 161 0 0 1-.323-3.124c-.003-.11-.053-.15-.112-.092-.132.13.26 5.372.461 6.168.058.229.084 1.382.084 1.382-1.213.216-1.749.216-3.497-.867v-2.594c0-1.503.052-1.761.464-2.038.847-.569.118-1.435-.246-1.435.656-.217.656-1.3-.218-1.517 1.487-.35 1.087-1.641.437-1.95-.847-.427-.656-1.517-.437-2.167m-.704 2.57c.624.007 1.282.206 1.25.464-.11.867-2.134.701-2.295.216-.169-.506.421-.689 1.045-.68m5.35 1.82c.22.218.6.377.6.377.128 1.695.327 5.488 0 8.018 0 0-.335.337-.6-.192zm-5.577.075c.538-.023 1.204.194.93.736-.218.433-1.53 0-1.53-.452 0-.17.277-.27.6-.284m12.733.302s.006.925.13 1.89l.176 1.36c-1.836 0-4.105-.216-4.682.439-.995 1.129.223 1.728.223 1.728-2.404.867-.437 2.384.437 1.95-.218.434-.954.65-1.365.65l-.751.009.036-4.137-.036-3.883zm-13.5.668c.094-.012.098.188-.05.63-.22.652.154 1.302.655 1.302-.223 1.042 0 1.734-.163 3.11-.1.849.182 1.72.27 1.928.142.342-.008.38-1.529.38H2l.149-.786c.24-1.272 1.194-4.403 1.685-5.534.282-.65.55-1.015.67-1.03m1.009.457q.134.008.321.048c.586.127.804.344.49.687-.667.724-1.586.303-1.294-.453.08-.207.211-.296.483-.282m13.584 2.125c.561 0 .83.604.993 1.307.154.666.213 1.421.334 1.835.18.617.171.628-.15.217-.186-.238-.958-1.192-.958-1.192s0 .217-.438.434c0 0 .078.168.536.764.312.393.995.969.776 1.186s-.826-.12-1.217-.542c-.285-.31-.75-.975-.75-.975s0 .217-.438.433c.349.671.875 1.132.875 1.132-.656.169-1.53-.048-1.53-.481-.219.433-1.368.647-1.852.643-.84-.007-.86-.022-.443-.348.743-.58 1.216-.683 2.076-1.596 0 0-3.06 1.198-3.278.434-.219-.764 2.798-1.237 3.715-1.95-.795-.004-3.278.65-3.278-.217s4.59-.433 4.59-.433c.437 0 .437-.65.437-.65"/>
    <path style="-inkscape-font-specification:&quot;Libertinus Serif Semi-Bold&quot;;fill:#272826;fill-opacity:1;stroke-width:4.06533" d="M13.011 16.455c-.042-.124-.037-.19.103-.208.014 0 .05 0 .05-.037v-.11l-.018-.01s-.303.01-.499.01c-.19 0-.494-.01-.494-.01l-.014.01v.115c0 .023.023.028.051.032.21.024.266.134.336.31l.55 1.4c.052.13.108.204.247.204.117 0 .168-.106.215-.217l.345-.85.34.864c.038.088.094.203.243.203.112 0 .168-.088.214-.208l.583-1.433c.065-.152.135-.25.336-.273.028-.004.051-.018.051-.041V16.1l-.01-.01s-.19.01-.316.01c-.205 0-.522-.01-.522-.01l-.019.014v.111c0 .014.014.028.037.032l.019.005c.22.056.242.065.191.213l-.434 1.183-.433-1.193c-.051-.134-.047-.18.098-.198l.079-.01c.014 0 .042-.009.042-.036V16.1l-.019-.01s-.345.01-.569.01c-.186 0-.475-.01-.475-.01l-.014.01v.115c0 .023.023.028.047.032.14.014.219.056.284.218l.144.36-.33.819zm3.674 0c-.042-.124-.037-.19.103-.208.014 0 .051 0 .051-.037v-.11l-.018-.01s-.304.01-.5.01c-.19 0-.494-.01-.494-.01l-.014.01v.115c0 .023.024.028.052.032.21.024.265.134.335.31l.55 1.4c.052.13.108.204.248.204.116 0 .168-.106.214-.217l.345-.85.34.864c.038.088.094.203.243.203.112 0 .168-.088.215-.208.315-.564.548-2.03-.084-.305l-.434-1.193c-.051-.134-.047-.18.098-.198l.08-.01c.013 0 .041-.009.041-.037v-.11l-.018-.01s-.345.01-.57.01c-.186 0-.475-.01-.475-.01l-.014.01v.115c0 .023.023.028.047.032.14.014.219.056.284.218l.145.36-.331.818z" aria-label="ww"/>
    <path style="display:inline;opacity:.199511;fill:#edefec;fill-opacity:1;stroke-width:.822519" d="M24.342.265c-.4.133-3.311 1.525-5.646 3.082-1.093.728-2.213 1.324-2.488 1.324-.61-.217-3.341.874-3.45 1.3-.624.178-.866.368-1.967 1.154-1.463 1.064-2.405 1.88-3.716 3.397L6.2 9.655c-.656.65-1.093 1.733-1.093 3.25 0 0 .064-.037-.437.15-.542.203-.877.731-.754 1.168.082-.328.364-.643.754-.789.501-.187.437-.15.437-.15 0-1.517.437-2.6 1.093-3.25l.874.867c1.31-1.517 2.253-2.333 3.716-3.398 1.1-.785 1.343-.975 1.966-1.153.11-.426 2.842-1.517 3.451-1.3.275 0 1.395-.596 2.488-1.325C21.031 2.17 23.943.776 24.342.643zM10.85.77c-.187 0-.257.247-.217.707.024-.209.092-.328.217-.328.483 0 1.147 2.27 1.22 3.567.07-1.163-.685-3.946-1.22-3.946m12.612 2.103c-.006 1.023-.073 1.158-.706 1.54-.39.234-1.251.705-1.912 1.046l-1.203.62-1.158-.582-.835-.42-.323.217 1.158.582 1.158.582 1.203-.62a42 42 0 0 0 1.912-1.047c.673-.405.71-.495.71-1.71 0-.074-.003-.138-.004-.208m-16.946.918c-.162.028-.205.23-.155.528.027-.082.078-.136.155-.15.144-.024 1.36 1.863 1.744 2.643.075-.016.125-.039.125-.065 0-.298-1.698-2.986-1.869-2.956m16.95 1.854-.003.894c-.002.7-.06 1.484-.129 1.74-.12.446-.96.884-.96.502 0-.1-.477-.666-1.059-1.258l-.807-.822-.25.124 1.057 1.076c.582.593 1.058 1.16 1.058 1.26 0 .381.84-.058.961-.503.07-.257.127-1.04.13-1.74zM3.043 6.62q-.479.002-.257.439.081-.06.257-.06C3.432 7 5.343 8.741 5.7 9.365q.062-.071.063-.22c0-.397-2.291-2.524-2.719-2.524m1.032 8.26C2.12 17.864 1.553 21.515.265 24.606h.15c1.217-3.093 1.813-6.682 3.818-9.588a1 1 0 0 1-.157-.137m1.103 8.756c-.153.088-.567.103-1.493.103H2.071l-.072.378h1.687c1.521 0 1.671-.037 1.528-.379-.008-.02-.024-.071-.035-.102m16.05.103-.015.378h2.253v-.378H22.34z"/>
    <path style="display:inline;opacity:.2;fill:#272826;fill-opacity:1;stroke-width:.822519" d="M23.352 1.421c-.312 0-3.017 1.482-4.43 2.427l-1.596 1.068.323.162 1.272-.85C20.335 3.28 23.04 1.8 23.351 1.8c.057 0 .103.47.112 1.074 0-.064.004-.1.004-.17 0-.706-.052-1.283-.115-1.283m-12.718.057c-.048.44.122 1.316.514 2.584.187.603.379 1.224.426 1.38.048.157.199.218.334.134.144-.087.187-.418.162-.86-.015.244-.064.422-.162.482-.135.083-.286.022-.334-.134-.047-.157-.24-.778-.426-1.38-.3-.97-.47-1.711-.514-2.206M6.362 4.32c-.103.311.138 1.061.638 1.882.36.591.778 1.015 1.002 1.015.211 0 .384-.04.384-.09 0-.047-.053-.167-.125-.314a1.2 1.2 0 0 1-.259.025c-.224 0-.642-.424-1.002-1.015-.355-.582-.574-1.123-.638-1.503m10.002.94-.817.125c-.45.069-1.037.278-1.305.464-.438.304-.449.334.075.337.29-.175.814-.359 1.23-.422l.228-.035.008-.005zm7.103.007-.688.137c-.379.075-1.101.34-1.605.59l-.915.453.25.255.665-.33c.504-.249 1.226-.514 1.605-.59l.687-.136zM15.01 6.702c-.327.01-.678.056-1.097.128-1.92.332-2.293.548-4.391 2.554-1.415 1.353-1.95 2.102-1.8 2.636.122-.506.69-1.195 1.8-2.257 2.098-2.006 2.47-2.222 4.391-2.554.419-.072.77-.118 1.097-.128.98-.028 1.747.27 3.481 1.162 1.414.728 2.886 2.034 4.308 3.825l.749.897V12.7l-.75-1.01c-1.421-1.792-2.893-3.098-4.307-3.825-1.734-.892-2.5-1.191-3.481-1.163M2.787 7.06c-.24.175.133.73 1.105 1.642 1.167 1.094 1.871 1.403 1.871.821a.4.4 0 0 0-.063-.158c-.195.23-.842-.136-1.808-1.041q-.888-.835-1.105-1.264m9.015 2.313c-.166-.002-.335.08-.5.282a.55.55 0 0 1 .479.1c.728-.022 1.414 1.579 1.414 1.579.655-.217.51-.867.51-.867l-.012-.02c-.046.188-.174.401-.498.508 0 0-.672-1.573-1.393-1.582m4.819 1.082c-.382.029-.627.266-.585.5a.7.7 0 0 1 .262-.032c.446-.23 1.371-.098 2.142 1.278 0 0 .437 0 .656-.65-.041-.043-.08-.078-.12-.119-.229.385-.536.39-.536.39-.615-1.097-1.33-1.404-1.82-1.367m-10.42.5c-.112.333-.214.781-.176 1.197a3.6 3.6 0 0 1 .176-.818c.655 1.083 1.748 2.817 4.152 4.333v-.378c-2.404-1.517-3.497-3.25-4.152-4.334m3.154.896-.004.001c-.04.14-.1.308-.19.525-.209.493-.282.699-.197.9.036-.133.1-.295.196-.522.248-.588.305-.897.195-.904m.6.332c-.023.67.046 1.315.241 1.78.08.173.168.315.26.442l1.11.472s.11.014.131.018c.472-.214.842-.87.842-1.828 0-.078-.006-.158-.007-.238-.074 1.84-1.543 2.476-2.336.755-.158-.375-.229-.872-.241-1.4m4.713.893c-.031.78.068 1.525.263 1.996h.23c-.301-.3-.48-1.1-.493-1.996m5.19.03s.178.586.203 1.318a5.4 5.4 0 0 0-.1-1.265c-.062-.035-.102-.053-.102-.053m-14.36.418c-.625-.008-1.215.175-1.046.681.004.013.014.024.02.035.14-.246.572-.343 1.025-.337.48.006.978.126 1.168.298a.5.5 0 0 0 .082-.212c.032-.258-.626-.457-1.25-.465m12.118.672c-.013.274-.056.494-.132.616-.087.14-.355.26-.355.26s.195.008.4.014c.074-.196.103-.514.087-.89m-13.7.027a.69.69 0 0 0 .16.658c.053-.08.102-.162.157-.242a.73.73 0 0 1-.316-.416m3.283.036c-.074.343-.363.664-.998.813a.94.94 0 0 1 .426.228c.513-.253.647-.666.572-1.04m3.649 1.087v.379c.218.216.598.376.598.376a64 64 0 0 1 .177 4.526 63 63 0 0 0-.177-4.905s-.38-.16-.598-.376m-5.578.074c-.323.014-.6.115-.6.284 0 .078.041.155.106.227.109-.075.288-.123.494-.132.374-.016.802.087.942.33.238-.521-.413-.732-.942-.709m12.733.302-5.832.006.003.379 5.829-.006s.006.924.13 1.89l.127.98.05.001-.176-1.36c-.125-.965-.131-1.89-.131-1.89m-11.139.365a.68.68 0 0 1-.445.502c.093 0 .209.057.317.15a.79.79 0 0 0 .128-.652m-2.36.303c-.121.015-.39.38-.671 1.03-.491 1.131-1.445 4.262-1.685 5.534l-.15.786h.073l.077-.408c.24-1.27 1.194-4.402 1.685-5.534.282-.649.55-1.014.67-1.029q.012 0 .022.004c.067-.266.052-.392-.022-.383m4.629.097c-.049.818.296 5.3.481 6.033.04.157.06.649.071 1.005l.013-.002s-.026-1.153-.084-1.382c-.166-.659-.458-4.32-.481-5.654m-3.621.36c-.272-.014-.403.075-.483.282a.66.66 0 0 0-.024.46q.009-.039.024-.081c.08-.208.211-.296.483-.282q.134.007.321.048.397.086.548.23c.214-.297-.008-.492-.548-.609a2 2 0 0 0-.321-.048m1.518.725c-.047.157-.159.314-.365.452-.412.277-.464.535-.464 2.038v.38c0-1.504.052-1.763.464-2.039.375-.252.44-.563.365-.831m-2.621.02c-.091.553.217 1.051.636 1.099q.022-.178.063-.369c-.35 0-.631-.318-.699-.73m16.983.89c.001.6-.01 1.241-.04 1.953l-.138 3.305h.016l.122-2.926c.036-.86.05-1.632.04-2.331m-2.296.49s0 .65-.437.65c0 0-4.59-.433-4.59.434 0 .084.03.15.073.208.58-.634 4.517-.263 4.517-.263.437 0 .437-.65.437-.65.561 0 .83.604.993 1.307.154.666.213 1.421.334 1.835l.009.033c.15.173.132.072-.01-.412-.12-.414-.179-1.169-.333-1.835-.162-.703-.432-1.307-.993-1.307m-8.748.59.005 3.962v-.001c0-1.217-.003-2.594-.005-3.96m1.857.244-.034 3.942h.003l.033-3.759zm-7.2.206c.002.17 0 .355 0 .54.005-.196.002-.367 0-.54m8.255.44c-.08.37.087.646.266.825.1-.047.203-.094.324-.138 0 0-.477-.235-.59-.688m4.087.2c-.218-.001-.568.048-.955.1-1.229.478-2.926.89-2.76 1.47q.017.062.06.106c.443-.612 2.853-1.053 3.655-1.677m1.71 1.194a1.3 1.3 0 0 1-.18.106s.078.167.536.763c.2.253.55.58.72.84.02-.01.04-.017.056-.032.219-.217-.464-.793-.776-1.186a9 9 0 0 1-.356-.491M4.93 22.02c-.034.697.15 1.347.248 1.617.098-.057.091-.143.035-.277a4.6 4.6 0 0 1-.283-1.34m11.98.148s-.28.106-.66.233c-.493.395-.887.57-1.417.984-.334.26-.365.32.056.339.709-.54 1.183-.668 2.02-1.556m-4.177.21c-.172.552.455 1.07 1.041 1.152.222-.107.417-.252.512-.44-.508.251-1.38-.157-1.553-.712m5.216.344q-.069.048-.166.096c.17.328.383.603.555.801q.165-.01.32-.048s-.38-.336-.71-.849M.415 24.606q-.073.191-.15.379h24.077v-.379z"/>
  </g>
</svg>
