<?xml version="1.0" encoding="UTF-8" standalone="no"?>
<!-- Created with Inkscape (http://www.inkscape.org/) -->

<svg
   width="75"
   height="75"
   viewBox="0 0 19.843749 19.84375"
   version="1.1"
   id="svg446"
   inkscape:version="1.4 (e7c3feb100, 2024-10-09)"
   xml:space="preserve"
   sodipodi:docname="point.svg"
   xmlns:inkscape="http://www.inkscape.org/namespaces/inkscape"
   xmlns:sodipodi="http://sodipodi.sourceforge.net/DTD/sodipodi-0.dtd"
   xmlns="http://www.w3.org/2000/svg"
   xmlns:svg="http://www.w3.org/2000/svg"
   xmlns:rdf="http://www.w3.org/1999/02/22-rdf-syntax-ns#"
   xmlns:cc="http://creativecommons.org/ns#"
   xmlns:dc="http://purl.org/dc/elements/1.1/"><sodipodi:namedview
     id="namedview448"
     pagecolor="#ffd5ff"
     bordercolor="#000000"
     borderopacity="0.25"
     inkscape:showpageshadow="false"
     inkscape:pageopacity="0"
     inkscape:pagecheckerboard="false"
     inkscape:deskcolor="#c700ff"
     inkscape:document-units="px"
     showgrid="true"
     inkscape:zoom="5.1073312"
     inkscape:cx="33.383384"
     inkscape:cy="44.837507"
     inkscape:window-width="1920"
     inkscape:window-height="1011"
     inkscape:window-x="0"
     inkscape:window-y="0"
     inkscape:window-maximized="1"
     inkscape:current-layer="layer1"><inkscape:grid
       id="grid1"
       units="px"
       originx="0"
       originy="0"
       spacingx="0.26458332"
       spacingy="0.26458333"
       empcolor="#0099e5"
       empopacity="0.30196078"
       color="#0099e5"
       opacity="0.14901961"
       empspacing="5"
       enabled="true"
       visible="true" /></sodipodi:namedview><defs
     id="defs443" /><g
     inkscape:groupmode="layer"
     id="layer2"
     inkscape:label="paper"
     inkscape:highlight-color="#eaf4bf"
     transform="translate(-291.27109,-350.47412)"
     sodipodi:insensitive="true"
     style="display:none"><rect
       style="fill:#d26af0;fill-opacity:1;stroke-width:2.45659"
       id="stickergudder"
       width="1058.3334"
       height="1058.3334"
       x="-264.58334"
       y="-66.145851" /><rect
       style="fill:#edefec;stroke-width:1.0245"
       id="rect507"
       width="529.16669"
       height="926.04169"
       x="-1.0172526e-05"
       y="-1.0172526e-05" /></g><g
     inkscape:groupmode="layer"
     id="layer3"
     inkscape:label="Color"
     sodipodi:insensitive="true"
     inkscape:highlight-color="#009846"
     transform="translate(-291.27109,-350.47412)" /><g
     inkscape:label="Line"
     inkscape:groupmode="layer"
     id="layer1"
     style="fill:#20221f"
     inkscape:highlight-color="#154b44"
     transform="translate(-291.27109,-350.47412)"><g
       id="layer4"
       inkscape:label="CC AND CFWME"
       style="display:none"
       transform="matrix(0.99999854,0,0,1,-1.5694134e-4,3.3223257e-4)"
       sodipodi:insensitive="true"><path
         style="fill:#20221f"
         d="m 125.02157,9.6962868 c -1.80008,-0.542571 -2.77186,-2.5932458 -2.40095,-5.0665966 0.34356,-2.2910766 2.27872,-3.557841 4.88862,-3.2001153 1.78136,0.2441634 2.8321,1.1112366 3.31749,2.7376025 0.16786,0.5624161 0.10359,0.5953125 -1.16307,0.5953125 -0.99198,0 -1.34075,-0.099337 -1.34075,-0.3818721 0,-0.2100296 -0.26462,-0.5672171 -0.58804,-0.79375 -1.42154,-0.995688 -2.58696,-0.071371 -2.58696,2.0517736 0,1.5075649 0.63388,2.5634319 1.53894,2.5634319 0.6314,0 1.63606,-0.740343 1.63606,-1.2056279 0,-0.2811367 0.34411,-0.3818721 1.30445,-0.3818721 h 1.30445 l -0.2398,0.8361172 c -0.61932,2.1594409 -2.92583,3.0728605 -5.67044,2.2455963 z m -6.48824,-1.0973385 v -1.190625 h 1.32291 1.32292 v 1.190625 1.1906251 h -1.32292 -1.32291 z M 132.29166,5.6885316 V 1.5874899 h 3.43959 3.43958 v 0.9260416 0.9260417 h -1.98438 -1.98437 v 0.7937501 0.79375 h 1.71979 1.71979 V 5.953115 6.8791566 h -1.71979 -1.71979 V 8.334365 9.7895734 h -1.45521 -1.45521 z m 9.30731,3.3734376 c -0.26207,-0.676426 -1.63439,-6.7689716 -1.63439,-7.2560141 0,-0.1201559 0.59531,-0.2184652 1.32292,-0.2184652 1.08187,0 1.32371,0.084365 1.32727,0.4630208 0.002,0.2546615 0.22261,1.3559896 0.48938,2.4473959 l 0.48503,1.984375 0.30026,-1.3829442 c 0.16514,-0.7606194 0.37686,-1.8619475 0.47047,-2.4473959 l 0.17022,-1.0644516 h 1.26858 c 1.19907,0 1.28348,0.04712 1.54043,0.8598958 0.14952,0.4729427 0.35261,1.3361459 0.45132,1.9182292 0.3198,1.8858501 0.55918,1.878435 0.88293,-0.02735 0.48508,-2.8554749 0.41198,-2.7507751 1.92066,-2.7507751 1.16734,0 1.30926,0.057662 1.13959,0.4630208 -0.1066,0.2546615 -0.5583,2.1001303 -1.00378,4.1010418 l -0.80997,3.6380209 h -1.49653 -1.49653 l -0.47839,-2.5415122 c -0.26626,-1.4145358 -0.5613,-2.3824549 -0.66536,-2.1828125 -0.10283,0.1972848 -0.40495,1.3409652 -0.67137,2.5415121 l -0.48442,2.1828126 h -1.37321 c -1.25333,0 -1.39783,-0.063524 -1.65511,-0.7276041 z m 10.32279,-0.396875 0.0814,-1.1244792 1.25677,-0.080643 1.25677,-0.080643 v 1.2051218 1.2051219 h -1.33813 -1.33813 z m 4.1824,-2.9881539 v -4.112633 l 1.91023,0.077737 1.91023,0.077737 0.32303,1.1906251 c 0.17767,0.6548437 0.46665,1.7264062 0.64217,2.38125 l 0.31915,1.190625 0.37256,-1.4552083 c 0.20491,-0.8003646 0.48967,-1.9016928 0.6328,-2.4473959 l 0.26023,-0.9921875 h 1.84188 1.84189 v 4.1010417 4.1010418 h -1.35293 -1.35292 l 0.10465,-2.8442709 0.10466,-2.8442709 -0.49078,1.7197917 c -1.19014,4.1705288 -0.99883,3.8280166 -2.18683,3.915307 l -1.07311,0.078849 -0.48003,-2.0632237 C 158.71302,4.665707 158.50256,4.5737669 158.49346,7.3421775 l -0.008,2.4473959 h -1.19062 -1.19063 z m 11.64167,0.011591 V 1.5874899 h 3.57187 3.57188 v 0.9260416 0.9260417 h -2.24896 c -2.2225,0 -2.24896,0.00778 -2.24896,0.6614584 0,0.6467593 0.0441,0.6614583 1.98438,0.6614583 h 1.98437 v 0.9260417 0.9260417 h -1.98437 c -1.94028,0 -1.98438,0.014699 -1.98438,0.6614584 0,0.6565586 0.0176,0.6614583 2.38125,0.6614583 h 2.38125 V 8.8635317 9.7895734 H 171.45 167.74583 Z"
         id="path3" /><path
         style="display:inline;fill:#515351;stroke-width:0.0443517"
         d="m 242.53535,924.00978 c -1.62259,-0.27234 -2.96773,-1.51038 -3.4083,-3.13693 -0.12342,-0.45561 -0.13494,-1.47716 -0.0218,-1.93315 0.1969,-0.79371 0.56578,-1.45208 1.13729,-2.02983 0.89285,-0.90261 1.85488,-1.27568 3.15059,-1.22179 1.15936,0.0482 1.9942,0.41019 2.82225,1.22368 0.79208,0.77813 1.18827,1.76278 1.18827,2.95324 0,0.65313 -0.0793,1.08629 -0.29652,1.61884 -0.62809,1.54021 -2.24327,2.58923 -3.95266,2.56719 -0.22244,-0.002 -0.50105,-0.0215 -0.61912,-0.0413 z m 1.47586,-0.82212 c 0.41415,-0.0999 1.1331,-0.46281 1.43483,-0.72418 0.83022,-0.7192 1.19228,-1.50829 1.19228,-2.59848 0,-0.62732 -0.0911,-1.03547 -0.34303,-1.53615 -0.43699,-0.86859 -1.26183,-1.5445 -2.19254,-1.79664 -0.40084,-0.10859 -1.37332,-0.10858 -1.77407,3e-5 -1.04105,0.28211 -1.96795,1.14598 -2.34852,2.18879 -0.32579,0.89266 -0.26347,1.82559 0.17873,2.67555 0.47289,0.90895 1.24236,1.51474 2.28066,1.79552 0.31473,0.0851 1.21105,0.0826 1.57166,-0.004 z m -2.25911,-2.05338 c -0.20878,-0.0458 -0.48886,-0.19511 -0.60483,-0.32249 -0.2334,-0.25635 -0.30438,-0.47713 -0.30438,-0.94679 0,-0.40937 0.0102,-0.46217 0.13306,-0.68587 0.15284,-0.2784 0.43014,-0.50877 0.7004,-0.58186 0.26577,-0.0718 0.76916,-0.03 0.98799,0.0822 0.0992,0.0508 0.25609,0.17625 0.34856,0.2786 0.18716,0.20716 0.19449,0.1909 -0.17196,0.38175 l -0.21953,0.11433 -0.0909,-0.11043 c -0.29295,-0.35577 -0.79453,-0.24456 -0.91549,0.20298 -0.0608,0.22481 -0.0289,0.59165 0.0676,0.77826 0.16501,0.31909 0.59859,0.35732 0.85682,0.0755 l 0.14427,-0.15743 0.24384,0.11958 c 0.13409,0.0658 0.24382,0.13583 0.24382,0.15569 0,0.0807 -0.37449,0.4349 -0.54938,0.51957 -0.20915,0.10124 -0.63335,0.14824 -0.86988,0.0964 z m 2.39879,-0.007 c -0.37095,-0.0777 -0.68806,-0.36662 -0.82342,-0.75029 -0.0867,-0.24573 -0.0865,-0.77327 3.3e-4,-1.02823 0.0887,-0.2602 0.28802,-0.49731 0.54533,-0.64857 0.18767,-0.11032 0.2475,-0.12177 0.62875,-0.12037 0.3438,10e-4 0.45476,0.0191 0.60295,0.0972 0.17593,0.0926 0.46149,0.37353 0.46149,0.45396 0,0.0217 -0.113,0.1042 -0.25111,0.18322 l -0.25111,0.14367 -0.0926,-0.11255 c -0.25745,-0.31287 -0.72082,-0.27657 -0.88496,0.0693 -0.089,0.18748 -0.0955,0.64227 -0.0121,0.83936 0.10157,0.23996 0.22772,0.32013 0.50373,0.32013 0.22681,0 0.25456,-0.0118 0.38674,-0.16474 l 0.14241,-0.16473 0.21843,0.11442 c 0.12013,0.0629 0.23358,0.12826 0.2521,0.14519 0.0596,0.0544 -0.28066,0.40255 -0.50417,0.51582 -0.24638,0.12485 -0.62729,0.1691 -0.92279,0.10722 z m 7.22554,2.84361 c -0.48145,-0.10788 -0.69679,-0.18709 -1.10001,-0.40459 -1.10721,-0.59722 -1.91123,-1.65866 -2.15593,-2.84619 -0.0907,-0.44027 -0.092,-1.30125 -0.002,-1.72869 0.31387,-1.50009 1.43598,-2.7123 2.93488,-3.17055 0.35945,-0.10989 0.45119,-0.11932 1.1663,-0.11994 0.66228,-5.1e-4 0.8271,0.0135 1.12336,0.0958 1.53026,0.42506 2.6981,1.64204 3.00561,3.13207 0.17196,0.83319 0.0828,1.88025 -0.22087,2.59386 -0.48441,1.13834 -1.58961,2.07777 -2.82909,2.40476 -0.51159,0.13496 -1.42164,0.15557 -1.92169,0.0435 z m 1.78321,-0.80773 c 0.91491,-0.25354 1.80873,-0.99468 2.20428,-1.82777 0.19293,-0.40633 0.27266,-0.74967 0.30089,-1.29581 0.056,-1.08274 -0.28262,-1.92532 -1.07514,-2.6755 -0.41678,-0.39453 -0.9453,-0.69253 -1.48353,-0.83647 -0.44153,-0.11808 -1.33412,-0.10533 -1.79424,0.0256 -1.09629,0.31207 -1.99074,1.17949 -2.36253,2.29113 -0.10719,0.32048 -0.11882,0.41919 -0.12023,1.0201 -0.002,0.6332 0.005,0.68385 0.13575,1.05086 0.19212,0.53949 0.47943,0.97705 0.91797,1.39808 0.55544,0.53323 1.14469,0.8299 1.87055,0.94175 0.36919,0.0569 1.02338,0.014 1.40623,-0.092 z m -1.56145,-1.59115 v -1.02009 h -0.24394 -0.24393 v -0.92451 c 0,-0.83933 0.007,-0.93128 0.0811,-0.99792 0.0703,-0.0636 0.2112,-0.0734 1.05756,-0.0734 0.88965,0 0.98299,0.007 1.04986,0.0811 0.0633,0.07 0.0734,0.20705 0.0734,0.99791 v 0.9168 h -0.24393 -0.24393 v 1.0201 1.02009 h -0.64311 -0.6431 z m 0.33684,-3.30287 c -0.17537,-0.0949 -0.23886,-0.18994 -0.27279,-0.40826 -0.0354,-0.22823 0.0348,-0.45467 0.18474,-0.59555 0.0955,-0.0897 0.15829,-0.10631 0.40152,-0.10631 0.26741,0 0.2974,0.0102 0.4131,0.13962 0.22791,0.25507 0.21755,0.67839 -0.022,0.90353 -0.1416,0.13302 -0.51659,0.16868 -0.70448,0.067 z m 7.24239,4.82239 c -0.39476,-0.41318 -0.58549,-0.68847 -0.81206,-1.17209 -0.27099,-0.57848 -0.35318,-0.93283 -0.35318,-1.52275 0,-0.5732 0.0816,-0.93998 0.32676,-1.46888 0.219,-0.47245 0.47667,-0.84637 0.84933,-1.23248 l 0.30361,-0.31456 0.0869,0.11089 c 0.077,0.0982 0.0797,0.12102 0.0236,0.19958 -0.64781,0.90681 -0.84099,1.52828 -0.84099,2.70545 0,1.1657 0.21755,1.86624 0.84113,2.70865 0.0627,0.0847 0.0599,0.0995 -0.0353,0.18896 l -0.10331,0.0971 z m 29.3902,0.19772 c -0.0714,-0.10899 -0.0679,-0.11928 0.15134,-0.44238 0.95121,-1.40195 0.9227,-3.72573 -0.0615,-5.01512 -0.0872,-0.1143 -0.15862,-0.2245 -0.15862,-0.24491 0,-0.0204 0.0419,-0.075 0.0931,-0.1213 0.0926,-0.0838 0.0944,-0.0828 0.40139,0.2391 0.75831,0.79523 1.14556,1.70606 1.14625,2.69604 6.4e-4,0.98581 -0.44943,1.97667 -1.25473,2.76211 l -0.24406,0.23804 z m -27.02539,-1.29701 c -0.76111,-0.16527 -1.22589,-0.57693 -1.47598,-1.30726 -0.13254,-0.38708 -0.13571,-1.01061 -0.007,-1.40808 0.39349,-1.21666 1.73157,-1.76215 3.20318,-1.30583 l 0.42091,0.13052 0.0498,0.30487 c 0.112,0.6859 0.11261,0.67342 -0.0345,0.70573 -0.15404,0.0339 -0.13409,0.0519 -0.23072,-0.209 -0.18892,-0.51008 -0.56367,-0.78369 -1.12876,-0.82412 -0.24386,-0.0175 -0.34209,-0.003 -0.53013,0.0779 -0.63748,0.27424 -1.02211,1.25499 -0.83984,2.1415 0.13277,0.64577 0.43999,1.11836 0.85883,1.32112 0.16829,0.0815 0.2549,0.0934 0.56187,0.0772 0.42325,-0.0223 0.71942,-0.1399 1.08539,-0.4309 0.16592,-0.13193 0.26008,-0.17847 0.32155,-0.15895 0.0478,0.0152 0.0869,0.0533 0.0869,0.0847 0,0.0805 -0.4269,0.47438 -0.66528,0.61386 -0.41746,0.24426 -1.07433,0.31747 -1.67611,0.1868 z m 4.52387,0 c -0.7611,-0.16527 -1.22588,-0.57693 -1.47598,-1.30726 -0.13254,-0.38708 -0.13571,-1.01061 -0.007,-1.40808 0.39349,-1.21666 1.73157,-1.76215 3.20318,-1.30583 l 0.42091,0.13052 0.0498,0.30487 c 0.112,0.6859 0.11262,0.67342 -0.0345,0.70573 -0.15404,0.0339 -0.13409,0.0519 -0.23073,-0.209 -0.18891,-0.51008 -0.56366,-0.78369 -1.12875,-0.82412 -0.24386,-0.0175 -0.34209,-0.003 -0.53014,0.0779 -0.63747,0.27424 -1.0221,1.25499 -0.83984,2.1415 0.13277,0.64577 0.44,1.11836 0.85884,1.32112 0.16829,0.0815 0.2549,0.0934 0.56187,0.0772 0.42325,-0.0223 0.71942,-0.1399 1.08539,-0.4309 0.16592,-0.13193 0.26007,-0.17847 0.32155,-0.15895 0.0478,0.0152 0.0869,0.0533 0.0869,0.0847 0,0.0805 -0.4269,0.47438 -0.66528,0.61386 -0.41746,0.24426 -1.07434,0.31747 -1.67611,0.1868 z m 17.97183,0.0169 c -0.12097,-0.0587 -0.2404,-0.26493 -0.2404,-0.41512 0,-0.0768 0.0539,-0.17344 0.1508,-0.27035 0.20457,-0.20455 0.45927,-0.21283 0.65095,-0.0212 0.36405,0.36404 -0.0898,0.93541 -0.56135,0.70663 z m 2.30983,0.009 c -0.22188,-0.054 -0.39459,-0.16352 -0.58681,-0.37205 -0.36707,-0.39823 -0.51657,-0.84975 -0.51657,-1.56012 0,-0.75121 0.18947,-1.26949 0.59855,-1.63729 0.58379,-0.52488 1.56264,-0.40261 1.97232,0.24636 0.24511,0.38827 0.29979,0.62698 0.30331,1.32439 0.002,0.5607 -0.01,0.68081 -0.0984,0.93736 -0.28035,0.81116 -0.95122,1.23692 -1.67236,1.06135 z m 0.50043,-0.29386 c 0.24907,-0.17445 0.36943,-0.72415 0.3733,-1.70485 0.004,-0.94638 -0.12165,-1.45526 -0.39457,-1.60132 -0.28431,-0.15216 -0.5517,0.22406 -0.63293,0.89054 -0.0579,0.47525 -0.0576,1.30491 6.4e-4,1.70863 0.0896,0.62017 0.35987,0.91259 0.6534,0.707 z m -16.40052,0.1801 c 0,-0.0879 0.0224,-0.11088 0.10799,-0.11088 0.19816,0 0.33801,-0.0838 0.4042,-0.24222 0.0519,-0.12415 0.0644,-0.43908 0.0644,-1.62056 0,-1.18146 -0.0125,-1.49639 -0.0644,-1.62054 -0.0662,-0.15841 -0.20604,-0.24222 -0.4042,-0.24222 -0.0856,0 -0.10799,-0.0229 -0.10799,-0.11088 v -0.11088 h 1.12282 c 0.62149,0 1.2397,0.0216 1.38459,0.0484 0.26917,0.0498 0.55668,0.17288 0.70172,0.30051 0.22689,0.19965 0.31661,0.64839 0.19015,0.95107 -0.033,0.0792 -0.16122,0.23483 -0.28475,0.34589 l -0.2246,0.20194 0.227,0.0816 c 0.43872,0.15777 0.69732,0.53602 0.69732,1.01997 0,0.43388 -0.18555,0.76192 -0.55263,0.97705 -0.3419,0.20037 -0.6832,0.24101 -2.03086,0.24186 l -1.23076,6.4e-4 z m 2.29406,-0.22224 c 0.29703,-0.0882 0.47419,-0.28916 0.54879,-0.62249 0.10297,-0.46016 -0.0755,-0.93712 -0.41664,-1.11354 -0.0886,-0.0458 -0.29533,-0.0813 -0.5521,-0.0947 l -0.4105,-0.0215 v 0.89057 c 0,0.87 0.002,0.89215 0.0986,0.95961 0.12507,0.0876 0.4408,0.0885 0.73188,0.002 z m 0.003,-2.22412 c 0.27261,-0.19982 0.3572,-0.66061 0.18613,-1.01399 -0.11423,-0.23595 -0.25643,-0.30954 -0.5982,-0.30954 -0.42004,0 -0.42144,0.002 -0.42144,0.78728 v 0.66555 l 0.35673,-0.0206 c 0.26207,-0.0152 0.3886,-0.044 0.47678,-0.10864 z m 2.75898,2.44713 c 0,-0.0971 0.0194,-0.11165 0.14861,-0.11165 0.0817,0 0.21122,-0.0218 0.28774,-0.0485 0.20331,-0.0709 0.24093,-0.24854 0.22023,-1.04021 l -0.0173,-0.66318 -0.50263,-0.84268 c -0.27644,-0.46347 -0.55238,-0.89614 -0.61318,-0.96149 -0.0608,-0.0653 -0.18303,-0.13587 -0.27161,-0.15672 -0.11777,-0.0277 -0.16486,-0.0644 -0.17522,-0.13622 l -0.0142,-0.0983 h 0.89011 0.89012 v 0.11089 c 0,0.0825 -0.0235,0.11087 -0.0916,0.11087 -0.16626,0 -0.27058,0.0842 -0.23703,0.1912 0.0631,0.20132 0.78389,1.40895 0.83148,1.39309 0.0706,-0.0236 0.7368,-1.27699 0.73801,-1.38867 10e-4,-0.0915 -0.15306,-0.19562 -0.28937,-0.19562 -0.0392,0 -0.0644,-0.0434 -0.0644,-0.11087 v -0.11089 h 0.66528 0.66527 v 0.10699 c 0,0.0897 -0.0278,0.11168 -0.17196,0.13603 -0.23435,0.0396 -0.317,0.14038 -0.85312,1.04045 l -0.4607,0.77343 -0.0151,0.73357 c -0.0185,0.90107 0.0141,1.04615 0.24929,1.11055 0.0907,0.0248 0.21484,0.0504 0.27583,0.0568 0.0774,0.008 0.11088,0.0384 0.11088,0.10035 0,0.086 -0.0335,0.0891 -1.0977,0.10057 l -1.09771,0.0119 z m 5.69387,0.0457 c -0.0368,-0.0958 0.0189,-0.15736 0.14242,-0.15736 0.33445,0 0.50601,-0.20523 0.50601,-0.60536 v -0.19298 h -0.64749 -0.64749 l -0.13076,-0.13997 c -0.0719,-0.077 -0.12098,-0.16547 -0.10902,-0.19663 0.0349,-0.091 1.16693,-1.78001 1.46133,-2.18035 l 0.26908,-0.3659 h 0.30133 0.30134 v 1.28619 1.28621 h 0.35482 c 0.32086,0 0.35481,0.008 0.35481,0.0855 0,0.1621 -0.12002,0.22492 -0.42968,0.22492 H 282.634 l 0.0185,0.28923 c 0.0226,0.35611 0.1113,0.46411 0.40828,0.49759 0.17915,0.0202 0.20456,0.0361 0.20456,0.12817 v 0.10511 h -1.02148 c -0.8521,0 -1.02558,-0.0107 -1.04619,-0.0644 z m 0.64843,-2.2042 v -0.93803 l -0.12343,0.17296 c -0.15438,0.21638 -0.49891,0.75727 -0.82354,1.29286 l -0.24865,0.41026 h 0.5978 0.59782 z"
         id="path460"
         inkscape:label="cc" /></g><path
       style="display:inline;fill:#dca15e;fill-opacity:1;stroke-width:4.94252"
       d="m 309.48075,358.13756 -4.8643,-0.37417 0.18709,-2.05798 -0.93544,-0.56127 -2.43216,1.6838 -2.61924,-0.37418 -2.61924,1.87089 v 1.12254 l -1.49671,2.99341 3.18051,3.18051 3.3676,0.74835 2.05798,-1.30962 -0.18709,-1.30962 1.30961,-2.80633 3.55469,-0.18709 2.61924,-1.12253 z"
       id="path2"
       sodipodi:insensitive="true" /><rect
       style="fill:#edefec;fill-opacity:1;stroke-width:4.94252"
       id="rect2"
       width="2.3812499"
       height="2.3812499"
       x="460.96494"
       y="44.459724"
       transform="rotate(45)"
       sodipodi:insensitive="true" /><path
       style="fill:#272826"
       d="m 292.45569,363.18895 c -0.4663,-2.46306 -0.19236,-6.56058 3.0522,-5.88475 0.53765,0.11198 0.91482,-0.0172 1.3653,-0.4677 1.31535,-1.09514 3.62732,-1.31818 4.56275,-0.75692 0,0 0.3664,-0.39694 0.66546,-0.62529 1.63881,-1.25119 3.25706,-0.65576 3.25706,1.19842 v 0.91996 l 2.21796,-0.0116 c 1.55941,-0.008 2.36008,0.1305 2.69666,0.46708 0.71093,0.71093 0.81275,1.80853 0.22219,2.39493 -0.99788,0.74889 -4.7725,1.59599 -5.87882,1.08212 0.37418,0.74835 -0.37418,1.49671 -0.37418,1.49671 0.24288,0.3628 0.1871,0.93544 -0.58005,1.41916 0.58005,1.20007 -0.62664,1.98167 -0.99778,2.2039 -0.82069,0.49137 -3.28647,0.49289 -3.28647,-0.25547 -0.90476,-0.16139 -1.58102,-0.10172 -2.05795,-0.93547 -0.47577,0.68797 -3.64117,1.22407 -4.86433,-2.24504 z m 8.41899,0.93545 c 0.18709,0.93544 -1.13956,1.63677 -1.13956,1.63677 l 1.09899,-0.0852 c 1.15964,-0.0899 2.0781,-0.71521 1.80604,-1.22956 -0.089,-0.16822 -0.34261,-0.58815 -0.56358,-0.93314 -0.48676,-0.75992 -0.23374,-1.09637 0.56749,-0.75458 1.38521,0.59091 0.28859,-1.06643 -0.78964,-1.70124 -0.24002,-0.14131 0.33923,-0.36511 0.91574,-0.13907 1.62739,0.63808 -0.47138,-1.35671 -0.77295,-1.65828 0.18709,-0.18708 0.61532,-0.0304 0.74835,10e-6 0.3342,0.0763 0.41191,0.0769 1.43127,0.74975 1.25092,0.82567 5.49102,0.0709 5.49102,-0.93684 1e-5,-0.361 -0.42494,-0.37177 -3.15173,-0.39842 -2.92271,-0.0285 -3.59791,-0.13489 -4.35982,-0.68672 -1.46874,-1.53407 -3.62117,-0.97372 -5.13152,0.56967 -0.0335,0.0326 0.52326,0.0421 1.23731,0.0212 0.71403,-0.0209 1.71291,0.0514 1.69927,0.36301 -0.0221,0.50541 0.19291,0.42228 -1.47931,0.59323 -1.76712,0.18064 -2.66661,0.58799 -2.53447,1.14778 0.0317,0.13408 0.50605,0.10932 1.05421,-0.0551 0.85666,-0.25695 3.18849,-0.22537 3.05095,0.27635 -0.11351,0.41402 -0.11351,0.41402 -1.84619,0.58596 -0.88717,0.064 -1.72922,0.23249 -1.87124,0.37451 -0.34451,0.34451 -0.16924,1.01989 0.21484,0.82786 0.4656,-0.2328 2.46363,-0.42314 2.51492,-0.15676 0.12581,0.65334 0.12581,0.65334 -1.36437,0.96212 -0.91878,0.22388 -0.96987,0.2689 -0.78646,0.69299 0.96702,1.80456 3.96044,-0.0663 3.96044,-0.0663 z m -5.0514,-5.05139 c -0.4191,-1.7619 -2.61923,-0.74836 -2.41618,0.48124 0.85517,-0.77244 1.66783,-0.85542 2.41618,-0.48124 z m 7.98937,-1.69241 c 0.4494,-0.44941 0.59664,-0.81863 0.48002,-1.20378 -0.25092,-0.82873 -0.31649,-0.83065 -1.11453,-0.0326 -0.70452,0.70452 -0.83412,0.62804 -0.24548,1.43207 0.0652,0.0891 0.52346,0.16084 0.87999,-0.19569 z"
       id="path1"
       sodipodi:nodetypes="ccsccsccscccccccccccsccssscscccccsscccscscsccccccssscs" /><path
       id="path5"
       style="fill:#4a4c49"
       d="m 303.85223,354.79479 c -0.52451,-0.0192 -1.13624,0.19019 -1.75079,0.65939 -0.29906,0.22835 -0.6656,0.62528 -0.6656,0.62528 -0.93543,-0.56126 -3.24716,-0.33808 -4.56251,0.75706 -0.45048,0.4505 -0.82764,0.57965 -1.36529,0.46767 -2.52634,-0.52622 -3.24793,1.84101 -3.22513,4.07779 0.0466,-2.13835 0.81604,-4.26798 3.22513,-3.76618 0.53765,0.11198 0.91481,-0.0172 1.36529,-0.46767 1.31535,-1.09514 3.62708,-1.31832 4.56251,-0.75706 0,0 0.36654,-0.39693 0.6656,-0.62528 1.63881,-1.25119 3.25716,-0.65581 3.25716,1.19837 v -0.31161 c 0,-1.15886 -0.63217,-1.82582 -1.50637,-1.85776 z m 3.72432,2.76624 -2.21795,0.0119 v 0.31109 l 2.21795,-0.0114 c 1.55941,-0.008 2.3599,0.13058 2.69648,0.46716 0.35547,0.35546 0.55895,0.80729 0.59945,1.24385 0.0478,-0.52441 -0.15828,-1.11429 -0.59945,-1.55546 -0.33658,-0.33658 -1.13707,-0.47515 -2.69648,-0.46715 z m -2.96002,4.25555 c 0.0477,0.0955 0.0769,0.19081 0.092,0.28474 0.0113,-0.0796 0.0139,-0.16167 0.006,-0.24547 -0.0345,-0.0121 -0.0676,-0.0251 -0.0982,-0.0393 z m -0.28216,1.39061 c -0.0475,0.0574 -0.092,0.10646 -0.092,0.10646 0.0521,0.0778 0.0864,0.16634 0.10697,0.26045 0.0259,-0.13007 0.0191,-0.25365 -0.015,-0.36691 z m -0.57825,1.45728 c -0.0324,0.0226 -0.0587,0.0459 -0.0941,0.0682 0.0817,0.16901 0.12501,0.32858 0.14315,0.48059 0.0221,-0.16986 0.01,-0.35303 -0.0491,-0.5488 z"
       sodipodi:nodetypes="cccccccccccscccccccsccccccccccccc" /></g><metadata
     id="metadata452"><rdf:RDF><cc:Work
         rdf:about=""><dc:creator><cc:Agent><dc:title>dekuuSkrb</dc:title></cc:Agent></dc:creator><dc:rights><cc:Agent><dc:title>dekuuSkrb</dc:title></cc:Agent></dc:rights><dc:identifier>eternalsmile</dc:identifier><dc:source>eternalsmile</dc:source></cc:Work></rdf:RDF></metadata><inkscape:templateinfo><inkscape:name>EtrnlSml-Aug-11-2024</inkscape:name><inkscape:date>2024-08-11</inkscape:date></inkscape:templateinfo></svg>
