<?xml version="1.0" encoding="UTF-8"?>
<svg id="svg32" width="212mm" height="507.29mm" version="1.1" viewBox="0 0 212 507.29" xmlns="http://www.w3.org/2000/svg" xmlns:cc="http://creativecommons.org/ns#" xmlns:dc="http://purl.org/dc/elements/1.1/" xmlns:rdf="http://www.w3.org/1999/02/22-rdf-syntax-ns#">
 <metadata id="metadata29">
  <rdf:RDF>
   <cc:Work rdf:about="">
    <dc:format>image/svg+xml</dc:format>
    <dc:type rdf:resource="http://purl.org/dc/dcmitype/StillImage"/>
   </cc:Work>
  </rdf:RDF>
 </metadata>
 <g id="layer1" transform="translate(-.064101 130.53)">
  <path id="path92" d="m39.957 328.88c2.3381 0.85342 4.6756 1.7087 7.0165 2.5546 13.116-35.674 26.654-72.485 39.267-107.2 8.4141 3.016 15.296 5.5483 24.283 8.6155-5.1491-25.082-10.518-51.211-15.248-74.619-2.9979 2.4194-6.6568 5.1745-9.6644 7.6595 3.3341 18.075 6.7594 35.418 10.341 51.766-3.2113-1.0899-16.777-5.57-18.187-6.0293-13.569 37.456-24.384 67.001-39.014 106.86-0.0518 0.0791-38.533-13.93-38.687-14.084 13.435-37.614 25.052-69.096 38.889-107.01-6.4999-2.5552-10.683-4.2624-18.189-7.091 5.2077-3.9204 13.729-10.424 18.988-14.633 0.31196-61.778 0.20562-239.64 0.20562-306.19h171.98v507.27c-27.584-18.511-58.448-37.377-85.981-54.495-28.691 18.134-57.412 36.222-85.999 54.52z" fill="#fefef5" stroke-width=".26458"/>
 </g>
</svg>
