<?xml version="1.0" encoding="UTF-8"?>
<svg id="svg32" width="265mm" height="265mm" version="1.1" viewBox="0 0 265 265" xmlns="http://www.w3.org/2000/svg" xmlns:cc="http://creativecommons.org/ns#" xmlns:dc="http://purl.org/dc/elements/1.1/" xmlns:rdf="http://www.w3.org/1999/02/22-rdf-syntax-ns#">
 <metadata id="metadata29">
  <rdf:RDF>
   <cc:Work rdf:about="">
    <dc:format>image/svg+xml</dc:format>
    <dc:type rdf:resource="http://purl.org/dc/dcmitype/StillImage"/>
    <dc:title/>
   </cc:Work>
  </rdf:RDF>
 </metadata>
 <g id="layer1">
  <path id="path48" d="m1.3484 153.26v-79.109l8.8575-17.051c4.8716-9.378 9.9161-17.051 11.21-17.051s9.0021 6.2335 17.129 13.852c14.699 13.779 14.859 13.841 30.426 11.814 15.046-1.9601 16.002-2.6367 24.812-17.565l9.163-15.527 24.923 29.531 46.891-0.78859c45.371-0.76305 49.036-1.4968 52.048-10.421 0.48647-1.4411 8.9752-1.6411 18.864-0.44449l17.979 2.1757-0.81457 31.517-0.81455 31.517-59.048 19.563c-32.476 10.76-59.577 20.079-60.224 20.709-0.64718 0.62999-3.9588 17.712-7.3591 37.959l-6.1824 36.814-127.86 1.6165zm145.66-46.41c-0.39569-0.4244-4.7692 0.0728-9.7189 1.105l-8.9995 1.8766 9.1578 18.464 5.14-10.337c2.827-5.6855 4.8163-10.684 4.4206-11.109zm32.57 3.3868c4.1931-9.5952 2.8368-11.424-6.6344-8.9453-6.555 1.7154-6.9413 2.622-3.9924 9.3703 4.1494 9.4953 6.3298 9.4081 10.627-0.42493zm32.971-15.605c-9.835-1.3306-10.978 0.7007-6.5993 11.724l3.7495 9.438 5.0347-10.093 5.0347-10.093zm37.799 0.22596c1.6988-5.7896 0.92381-6.7572-5.4123-6.7572-8.2725 0-8.9269 2.2184-3.988 13.52 3.561 8.1489 5.4166 6.8139 9.4004-6.763zm-212.1 1.0478 5.7801-10.214-7.8134-7.805c-4.2974-4.2927-8.6814-7.805-9.7422-7.805-1.0608 0-4.0129 4.2022-6.5602 9.3382-4.5076 9.0884-4.4181 9.5704 3.3453 18.019 4.3872 4.7745 8.2543 8.681 8.5936 8.681 0.33924 0 3.2178-4.5964 6.3969-10.214zm76.092-7.223c4.5644-8.0563 4.4897-8.8004-1.6954-16.888l-6.4701-8.4603-4.8846 7.7727c-6.1088 9.7208-6.131 13.583-0.11757 20.511 6.3074 7.2668 7.5434 6.9913 13.168-2.9356z" fill="#1a1b19" stroke-width="2.9412"/>
 </g>
</svg>
