<?xml version="1.0" encoding="UTF-8"?>
<svg id="svg32" width="209.16mm" height="500mm" version="1.1" viewBox="0 0 209.16 500" xmlns="http://www.w3.org/2000/svg" xmlns:cc="http://creativecommons.org/ns#" xmlns:dc="http://purl.org/dc/elements/1.1/" xmlns:rdf="http://www.w3.org/1999/02/22-rdf-syntax-ns#" xmlns:xlink="http://www.w3.org/1999/xlink">
 <defs id="defs26">
  <linearGradient id="linearGradient2" x1="122.21" x2="122.21" y1="105.15" y2="-130.71" gradientUnits="userSpaceOnUse">
   <stop id="stop1" stop-color="#edefec" offset="0"/>
   <stop id="stop3" stop-color="#e2e3e2" offset=".23446"/>
   <stop id="stop2" stop-color="#e2e3e2" offset=".50756"/>
  </linearGradient>
 </defs>
 <metadata id="metadata29">
  <rdf:RDF>
   <cc:Work rdf:about="">
    <dc:format>image/svg+xml</dc:format>
    <dc:type rdf:resource="http://purl.org/dc/dcmitype/StillImage"/>
   </cc:Work>
  </rdf:RDF>
 </metadata>
 <g id="layer1" transform="translate(-2.7742 129.12)">
  <path id="path92" d="m39.957 328.88c0.29339 0.10709 0.58676 0.2142 0.88014 0.32132 3.3877 1.237 7.1453-0.51073 8.3898-3.8957 11.128-30.267 22.502-61.216 33.31-90.893 2.0476-5.6229 8.2671-8.5363 13.899-6.5145 0.5473 0.19646 1.0947 0.39267 1.6434 0.58899 6.8562 2.453 11.256-1.4242 9.7922-8.5575-3.791-18.469-7.6211-37.153-11.157-54.591-0.7964-3.9279-3.9878-5.097-7.1416-2.6238-2.2056 1.7296-3.1941 7.3504-2.2203 12.501 2.1585 11.417 4.359 22.515 6.6189 33.224 1.0744 5.0914-2.0194 7.8705-6.9592 6.2348-5.1057-1.6907-10.899 1.5084-12.94 7.1338-10.639 29.322-19.865 54.547-31.184 85.399-2.2843 6.2266-9.2074 9.4857-15.442 7.2256-5.8025-2.1033-12.779-4.6445-18.238-6.6437-5.0582-1.8525-7.6759-7.5061-5.8563-12.578 12.078-33.664 22.905-63.037 35.6-97.826-3.6191-1.4227-6.52-2.5825-9.6761-3.8194-4.6896-1.8378-5.2497-5.7261-1.2485-8.7859 4.1287-3.1573 8.528-6.5615 11.723-9.1186 0.31196-61.778 0.20562-238.22 0.20562-304.78h171.98v486.86c0 10.488-7.0562 14.246-15.851 8.5324-18.918-12.291-38.728-24.564-57.515-36.21-6.9692-4.3203-18.236-4.2764-25.17 0.10335-19.54 12.342-39.083 24.681-58.577 37.097-8.2169 5.2334-14.868 1.5948-14.868-8.1473z" fill="url(#linearGradient2)" stroke-width=".26458"/>
 </g>
</svg>
