<svg>
	<defs>
		<g id="arrow">
			  <path id="path116" transform="translate(3.1405 1.5981)" d="m132.43 231.92v-24.474a8.5328 8.5328 45 0 0-8.5328-8.5328h-100.47a23.294 23.294 45 0 1-23.294-23.294v-87.871a21.391 21.391 135 0 1 21.391-21.391h103.28a7.6169 7.6169 135 0 0 7.6169-7.6169v-34.811a9.8789 9.8789 157.5 0 1 16.864-6.9854l104.84 104.84a15.164 15.164 90 0 1 0 21.444l-100.98 100.98a12.139 12.139 22.5 0 1-20.722-8.5835z"  stroke-width=".26458"/>
		</g>
		<g id="load">
		</g>
		<g id="d-save">
		</g>
		<g id="save">
		</g>
		<g id="d-load">
		</g>
		<g id="mail">
		</g>
		<g id="fury">
		</g>
		<g id="rss">
		</g>
	</defs>
</svg>
