<?xml version="1.0" encoding="UTF-8"?>
<!-- Created with Inkscape (http://www.inkscape.org/) -->
<svg id="svg446" width="210" height="210" version="1.1" viewBox="0 0 55.562 55.562" xml:space="preserve" xmlns="http://www.w3.org/2000/svg" xmlns:cc="http://creativecommons.org/ns#" xmlns:dc="http://purl.org/dc/elements/1.1/" xmlns:rdf="http://www.w3.org/1999/02/22-rdf-syntax-ns#"><g id="layer2" transform="translate(-283.89 -273.74)" display="none"><rect id="stickergudder" x="-264.58" y="-66.146" width="1058.3" height="1058.3" fill="#d26af0" stroke-width="2.4566"/><rect id="rect507" x="-1.0173e-5" y="-1.0173e-5" width="529.17" height="926.04" fill="#edefec" stroke-width="1.0245"/></g><g id="layer1" transform="translate(-283.89 -273.74)" fill="#20221f"><path id="path1" d="m293.03 280.91 0.23306 7.8486c17.143 0 31.815 14.666 31.815 31.81l7.9127 0.12815c0-22.56-18.487-39.787-39.961-39.787zm0.20722 13.314-0.07803 7.5892c5.5433 0 18.702 4.858 18.702 18.805l7.7189 0.10387c0-12.244-10.647-26.498-26.343-26.498zm5.4653 15.464a5.4136 5.4136 0 0 0-5.4136 5.4136 5.4136 5.4136 0 0 0 5.4136 5.4136 5.4136 5.4136 0 0 0 5.4136-5.4136 5.4136 5.4136 0 0 0-5.4136-5.4136z" fill="#1a1b19" stroke-width="4.9425"/></g><metadata id="metadata452"><rdf:RDF><cc:Work rdf:about=""><dc:creator><cc:Agent><dc:title>dekuuSkrb</dc:title></cc:Agent></dc:creator><dc:rights><cc:Agent><dc:title>dekuuSkrb</dc:title></cc:Agent></dc:rights><dc:identifier>eternalsmile</dc:identifier><dc:source>eternalsmile</dc:source></cc:Work></rdf:RDF></metadata></svg>
