<?xml version="1.0" encoding="UTF-8"?>
<svg id="svg8" width="206.21mm" height="500mm" version="1.1" viewBox="0 0 206.21 500" xml:space="preserve" xmlns="http://www.w3.org/2000/svg" xmlns:cc="http://creativecommons.org/ns#" xmlns:dc="http://purl.org/dc/elements/1.1/" xmlns:rdf="http://www.w3.org/1999/02/22-rdf-syntax-ns#" xmlns:xlink="http://www.w3.org/1999/xlink"><defs id="defs2"><linearGradient id="linearGradient3" x1="101.62" x2="101.62" y1="86.836" y2="-113.31" gradientUnits="userSpaceOnUse"><stop id="stop4" stop-color="#edefec" offset="0"/><stop id="stop6" stop-color="#e2e3e2" offset=".21715"/><stop id="stop5" stop-color="#d8d8d8" offset=".40511"/></linearGradient></defs><metadata id="metadata5"><rdf:RDF><cc:Work rdf:about=""><dc:format>image/svg+xml</dc:format><dc:type rdf:resource="http://purl.org/dc/dcmitype/StillImage"/></cc:Work></rdf:RDF></metadata><g id="layer1" transform="translate(-.06216 232.82)"><path id="path76" transform="translate(0 -104.77)" d="m0.06216-232.82h171.98v352.6a16.717 16.717 135 0 1-16.717 16.717 16.407 16.407 133.91 0 0-16.091 16.717v92.579c0 2.7612-2.2384 5.0114-4.9995 5.0261l-6.6131 0.0351c-7.8726 0.0418-10.932 5.5243-6.8246 12.241 9.1772 15.009 18.577 30.302 27.977 45.349 2.4711 3.9556 6.5677 4.001 8.9915 0.0168 1.1292-1.8562 1.0508-4.9813-0.18417-6.9859-6.3796-10.355-12.759-20.71-19.139-31.066-3.4771-5.6439-0.92206-10.258 5.7068-10.306 0.173-1e-3 0.346-2e-3 0.51901-4e-3 3.7206-0.0268 6.7367-3.0648 6.7367-6.7854v-90.84a16.717 16.717 135 0 1 16.717-16.717h7.8413a16.717 16.717 45 0 1 16.717 16.717v35.43 57.147c0 2.7612 2.2383 5.0157 4.9995 5.0356 7.8754 0.0568 10.884 5.5872 6.7197 12.353-9.9111 16.102-19.822 32.205-29.733 48.307-1.4474 2.3515-2.6265 6.4961-2.6337 9.2573-0.0183 6.998-0.0365 13.996-0.0548 20.994-0.037 14.164-9.8178 19.583-21.79 12.014-16.713-10.566-33.653-21.419-50.111-31.898-7.6997-4.9028-20.223-4.9338-27.95-0.0746-16.844 10.592-33.66 21.23-50.445 31.916-11.948 7.6069-21.618 2.3177-21.618-11.847-6.118e-5 -143.01-5.713e-5 -466.13-5.713e-5 -583.93z" color="#000000" color-rendering="auto" dominant-baseline="auto" fill="url(#linearGradient3)" image-rendering="auto" shape-rendering="auto" solid-color="#000000" stop-color="#000000" style="-inkscape-stroke:none;font-feature-settings:normal;font-variant-alternates:normal;font-variant-caps:normal;font-variant-east-asian:normal;font-variant-ligatures:normal;font-variant-numeric:normal;font-variant-position:normal;font-variation-settings:normal;inline-size:0;isolation:auto;mix-blend-mode:normal;shape-margin:0;shape-padding:0;text-decoration-color:#000000;text-decoration-line:none;text-decoration-style:solid;text-indent:0;text-orientation:mixed;text-transform:none;white-space:normal"/></g></svg>
