<?xml version="1.0" encoding="UTF-8" standalone="no"?>
<!-- Created with Inkscape (http://www.inkscape.org/) -->

<svg
   width="788.83649"
   height="198.66222"
   viewBox="0 0 208.71298 52.562711"
   version="1.1"
   id="svg446"
   inkscape:version="1.3.2 (091e20ef0f, 2023-11-25)"
   xml:space="preserve"
   sodipodi:docname="12logonoblack.svg"
   xmlns:inkscape="http://www.inkscape.org/namespaces/inkscape"
   xmlns:sodipodi="http://sodipodi.sourceforge.net/DTD/sodipodi-0.dtd"
   xmlns:xlink="http://www.w3.org/1999/xlink"
   xmlns="http://www.w3.org/2000/svg"
   xmlns:svg="http://www.w3.org/2000/svg"
   xmlns:rdf="http://www.w3.org/1999/02/22-rdf-syntax-ns#"
   xmlns:cc="http://creativecommons.org/ns#"
   xmlns:dc="http://purl.org/dc/elements/1.1/"><sodipodi:namedview
     id="namedview448"
     pagecolor="#ffd5ff"
     bordercolor="#000000"
     borderopacity="0.25"
     inkscape:showpageshadow="false"
     inkscape:pageopacity="0"
     inkscape:pagecheckerboard="false"
     inkscape:deskcolor="#c700ff"
     inkscape:document-units="px"
     showgrid="false"
     inkscape:zoom="0.90285713"
     inkscape:cx="359.41456"
     inkscape:cy="129.03481"
     inkscape:window-width="1920"
     inkscape:window-height="1011"
     inkscape:window-x="0"
     inkscape:window-y="0"
     inkscape:window-maximized="1"
     inkscape:current-layer="layer1" /><defs
     id="defs443"><linearGradient
       inkscape:collect="always"
       id="linearGradient1">

        <stop
         class="stop1"
         offset="0%"
         id="stop2">
       <animate
           attributeName="offset"
           values="-1.5;3"
           dur="1300ms"
           repeatCount="1" />
      </stop>
      <stop
         class="stop2"
         offset="0%"
         id="stop4">
        <animate
           attributeName="offset"
           values="-1;3"
           dur="1300ms"
           repeatCount="1" />
      </stop>
      <stop
         class="stop3"
         offset="0%"
         id="stop6">
        <animate
           attributeName="offset"
           values="-1;3.1"
           dur="1300ms"
           repeatCount="1" />
      </stop>
       <stop
         style="stop-color:#edefec00;stop-opacity:1;"
         offset="0"
         id="stop2595" />


<stop
         style="stop-color:#edefec00;stop-opacity:1;"
         offset="1"
         id="stop2597" /></linearGradient>
         <style
       type="text/css"
       id="style9"><![CDATA[

      #path2026 {
            fill: url(#Gradient1);
            transistion: fill 200ms;
      }
      .stop1 {
            stop-color: #edefec00;

      }
      .stop2 {
            stop-color: #edefec;

      }
      .stop3 {
            stop-color: #edefec00;

      }
    ]]></style><linearGradient
       inkscape:collect="always"
       xlink:href="#linearGradient1"
       id="linearGradient2"
       x1="164.8042"
       y1="473.81708"
       x2="357.15448"
       y2="473.81708"
       gradientUnits="userSpaceOnUse" /></defs><g
     inkscape:label="Line"
     inkscape:groupmode="layer"
     id="layer1"
     style="fill:#20221f"
     inkscape:highlight-color="#154b44"
     transform="translate(-163.40871,-447.30622)"><path
       style="fill:url(#linearGradient2);stroke-width:1.02447;fill-opacity:1;opacity:1"
       d="m 179.74882,452.61629 -7.46007,7.21663 -3.44997,10.96184 -3.15815,13.495 -0.87643,8.77046 14.59089,-0.54102 0.004,6.5203 20.13894,-1.55231 2.42055,-4.25051 16.60803,0.34007 9.05124,-2.502 5.98748,0.9941 7.4974,0.72162 9.60075,4.68994 7.28715,-5.54866 8.51438,-0.35606 17.91104,1.0966 2.34881,-1.89714 4.3701,3.20116 10.3244,-2.32028 0.49215,2.26018 23.57201,-3.89546 25.31687,0.11251 -1.86476,-8.19717 -0.37811,-9.79259 8.55696,-0.20803 -1.04327,-8.28864 0.23808,-5.14596 -4.79345,-5.65317 -22.30684,1.83218 -12.775,-4.93297 -6.03393,3.84436 -19.72187,1.76571 -11.51297,-1.72463 -1.79343,-1.89613 -10.28909,0.31892 -13.86228,-3.46048 -12.34964,5.36461 -17.62004,-2.06571 -4.29796,0.9853 -10.72022,-1.48321 -4.30252,1.55808 z"
       id="path1" /><path
       id="path17"
       style="color:#000000;fill:#edefec;-inkscape-stroke:none"
       inkscape:label="whiteback"
       d="m 253.09833,447.30622 -5.12993,2.95382 a 5.477674,5.477674 0 0 1 -2.85461,0.72916 l -0.58393,-0.0129 -0.54778,0.37568 a 7.296787,7.296787 0 0 1 -5.05344,1.2206 l -15.49259,-1.98282 -0.35089,0.13074 a 13.317212,13.317212 0 0 1 -6.43164,0.72089 l -8.34057,-1.12345 -1.14258,0.56327 a 9.1934917,9.1934917 0 0 1 -5.04103,0.89607 l -4.57802,-0.48834 a 21.774574,21.774574 0 0 1 -5.26944,0.48007 l -10.63656,-0.31729 a 5.499585,5.499585 0 0 0 -3.98632,1.54306 l -6.42235,6.20789 -0.15399,0.44752 c 0,0 -2.60659,7.48736 -4.44573,15.77939 -1.83269,8.26292 -2.91403,16.50184 -2.91403,16.50184 l -0.3142,2.39624 10.61538,-0.69815 a 3.8889574,3.8889574 0 0 1 4.13204,4.1894 l -0.16329,2.05001 22.91591,-1.3162 a 4.4088785,4.4088785 0 0 1 4.86999,-4.11603 l 13.01367,0.25838 1.7198,-0.67541 a 20.029976,20.029976 0 0 1 8.78395,-1.33325 l 7.76129,0.56741 a 18.374776,18.374776 0 0 1 6.88227,1.89342 l 7.0745,3.53984 5.5609,-4.3987 a 6.6821798,6.6821798 0 0 1 3.93051,-1.43764 l 5.67098,-0.18293 18.9916,1.03508 0.69091,-0.8909 a 1.3393809,1.3393809 0 0 1 1.96474,-0.16485 l 3.01067,2.76675 8.22688,-2.14095 a 1.2606179,1.2606179 0 0 1 1.5782,1.19528 l 0.009,0.47697 25.36537,-4.00803 26.28884,0.16227 -0.63459,-2.49029 c 0,0 -1.58808,-6.32466 -1.91409,-10.44329 -0.0808,-1.0207 -0.12105,-1.92655 -0.1354,-2.72696 -0.0265,-1.47985 1.24789,-2.68079 2.72852,-2.68253 l 5.8074,-0.007 -0.42995,-2.3399 c 0,0 -0.77209,-4.37146 -0.78703,-7.03523 -0.0162,-2.88845 0.22066,-4.53719 0.22066,-4.53719 l 0.12712,-0.89039 -5.225,-6.06836 -17.65629,1.43247 a 20.986204,20.986204 0 0 1 -9.63559,-1.49087 l -8.4031,-3.4339 -0.34262,0.32712 a 16.437125,16.437125 0 0 1 -9.99629,4.49119 l -14.4203,1.19063 a 1.2606376,1.2606376 0 0 1 -1.06816,-0.44442 l -0.0692,-0.0827 -7.91683,-0.58498 a 4.7533618,4.7533618 0 0 1 -3.36827,-1.77973 l -0.24598,-0.30903 -0.76585,-0.1173 c 0,0 -3.82215,-0.62709 -7.40833,-0.26924 -0.19423,0.0194 -0.38159,0.0412 -0.56276,0.0651 -1.77769,0.23446 -4.56566,0.25954 -6.28282,-0.26458 z m 0.24288,2.1487 11.74553,3.58635 -0.23461,1.22835 c 0,0 2.33962,-1.1095 6.10971,-1.4857 3.20185,-0.3195 6.90604,0.25476 6.90604,0.25476 l 1.59938,2.0066 10.02213,0.74104 0.60978,0.72502 22.58157,-1.86449 4.12429,-3.93722 12.29176,5.02346 22.11803,-1.79369 3.9796,4.62091 c 0,0 -0.25771,1.82025 -0.24081,4.82658 0.0169,3.00633 0.8201,7.38198 0.8201,7.38198 l -7.94525,0.008 c 0,0 -0.40475,3.0988 -0.0527,7.54631 0.35204,4.44751 1.96939,10.7766 1.96939,10.7766 l -23.88071,-0.14779 -23.27558,3.67781 -0.045,-2.31459 -10.98072,2.85822 -3.15072,-3.83749 1.09297,-4.44779 -3.02772,-0.17777 -2.64015,6.91534 -15.59078,-1.04179 -0.95757,-2.26085 -2.13527,0.0512 -0.74724,2.37247 -6.82025,0.21136 -6.81302,5.38933 -9.55808,-4.7811 -11.00191,-0.71779 -1.48931,-5.57899 -9.15552,6.67763 -2.42982,-3.77858 -0.95705,4.50877 -14.46733,-0.30541 0.093,-3.2892 -3.13365,-0.13333 0.2005,7.73338 -18.72289,1.07435 0.524,-6.5536 -14.9841,0.98598 c 0,0 1.0761,-8.1777 2.88406,-16.32923 1.80798,-8.15155 4.38113,-15.55874 4.38113,-15.55874 l 7.1484,-6.91069 15.04818,0.44958 2.50682,-0.54363 7.48172,0.79737 3.50676,-1.72755 11.53831,1.55288 3.48403,-1.29966 18.51566,2.37143 2.93936,-2.01642 2.02727,0.0439 z m 107.54795,1.34772 c -0.91395,0.003 -1.83163,0.29595 -2.52697,0.90641 -0.69536,0.61046 -1.14557,1.55074 -1.11156,2.72645 0.0339,1.17284 0.52238,2.0916 1.23455,2.68149 0.71216,0.58991 1.62919,0.86025 2.53317,0.83974 0.90397,-0.0205 1.80567,-0.33167 2.49391,-0.9431 0.68823,-0.61143 1.14412,-1.53466 1.13481,-2.67994 -0.009,-1.14832 -0.49533,-2.06349 -1.20871,-2.65616 -0.71338,-0.59266 -1.63524,-0.87822 -2.5492,-0.87489 z m 7.475,0.10956 c -0.91396,0.003 -1.83214,0.29542 -2.5275,0.90589 -0.69534,0.61046 -1.14557,1.54918 -1.11156,2.72489 0.0339,1.17284 0.52239,2.09365 1.23455,2.68356 0.71217,0.58989 1.62921,0.85819 2.53318,0.83768 0.90399,-0.0205 1.80619,-0.3296 2.49442,-0.94103 0.68823,-0.61143 1.14361,-1.53468 1.1343,-2.67994 -0.009,-1.14833 -0.49533,-2.06557 -1.20871,-2.65824 -0.71338,-0.59266 -1.63472,-0.87615 -2.54868,-0.87281 z m -7.47293,0.74776 c 0.73196,-0.003 1.46534,0.23141 2.0004,0.67592 0.53505,0.44452 0.89066,1.08441 0.89813,2.00402 0.007,0.92268 -0.33003,1.57712 -0.84542,2.03501 -0.5154,0.45788 -1.22608,0.70818 -1.94562,0.72451 -0.71953,0.0163 -1.43614,-0.20122 -1.96681,-0.64079 -0.53067,-0.43957 -0.8963,-1.09166 -0.92397,-2.04845 -0.0276,-0.95391 0.30467,-1.60558 0.81855,-2.05673 0.51388,-0.45114 1.23279,-0.69082 1.96474,-0.69349 z m 7.475,0.10955 c 0.73194,-0.003 1.46481,0.23141 1.99987,0.67593 0.53505,0.44451 0.89067,1.08388 0.89814,2.00349 0.007,0.92268 -0.33004,1.57559 -0.84543,2.03347 -0.18704,0.16617 -0.39991,0.30491 -0.62941,0.41548 0.0569,-0.61846 0.005,-1.91246 -1.43093,-1.93787 -0.0295,-5.3e-4 -0.0584,-4.8e-4 -0.0868,0 -1.43751,0.0239 -1.51905,1.29807 -1.49552,1.79989 -0.0939,-0.0591 -0.18467,-0.12331 -0.26975,-0.19378 -0.53067,-0.43956 -0.89579,-1.09012 -0.92346,-2.04691 -0.0276,-0.95392 0.30415,-1.60712 0.81804,-2.05827 0.51388,-0.45113 1.23331,-0.68876 1.96526,-0.69143 z m -114.74028,0.32349 -0.72761,2.44688 1.31103,0.13591 3.99252,16.28583 4.81108,-16.10031 z m 114.60902,0.46664 a 1.0174272,1.004395 0 0 0 -1.01699,1.00459 1.0174272,1.004395 0 0 0 1.01699,1.00408 1.0174272,1.004395 0 0 0 1.01751,-1.00408 1.0174272,1.004395 0 0 0 -1.01751,-1.00459 z m -7.71064,0.24805 c -0.69099,0.0119 -2.06001,0.2077 -1.96732,1.58698 0.12361,1.83945 2.3766,1.35961 2.3766,1.35961 l 0.006,-0.59014 c 0,0 -1.56861,0.25874 -1.63711,-0.80099 -0.0685,-1.05973 1.61023,-0.91571 1.61023,-0.91571 l -0.003,-0.62735 c 0,0 -0.15451,-0.0163 -0.38447,-0.0124 z m 2.14664,0.33538 c -0.36866,0.005 -1.83051,0.11223 -1.69499,1.52859 0.15494,1.61934 1.99213,1.00511 1.99213,1.00511 l 0.006,-0.59015 c 0,0 -1.21021,0.41705 -1.25211,-0.44648 -0.0419,-0.86382 1.03507,-0.8692 1.03507,-0.8692 l -0.003,-0.62735 c 0,0 -0.0302,-9.7e-4 -0.0822,-5.2e-4 z m -44.68513,0.93483 -0.64285,1.57819 1.7725,-0.15813 -1.37666,8.85528 -4.18838,0.61546 -4.0752,10.00715 6.54844,-1.52291 0.2129,9.62525 -11.13782,2.64429 -0.56379,1.38389 19.5895,-3.09955 3.46336,-8.67854 -8.93796,1.06557 8.22069,-18.93373 z m -92.79847,0.75447 -0.21652,0.0667 -0.38034,2.1208 c 1.54635,1.06641 2.79903,2.55308 3.3414,4.58163 1.52697,5.71117 -1.76866,9.68184 -3.3104,11.17968 l 4.51808,6.28747 0.51211,-5.48339 3.78943,11.9724 6.96495,0.41186 2.78846,-28.62409 -7.2223,-0.95188 -0.71623,12.2902 -3.65559,-12.89947 c 0,0 -6.18545,-1.02188 -6.41305,-0.95188 z m 51.41443,0.005 c 0,0 -8.51285,0.44199 -13.72784,4.30413 l -3.03497,10.15649 c 2.35796,3.46496 9.9342,3.16607 9.76892,4.72529 -0.11452,1.08038 -1.78026,1.59562 -3.72588,1.83089 l 2.7063,4.17546 -6.08852,4.26279 c 4.34165,-0.8071 18.21368,-3.92238 17.11524,-10.66705 -1.01911,-6.25759 -10.41694,-5.19361 -10.70116,-7.88531 -0.34408,-3.25858 4.73178,-3.24178 7.40937,-3.01118 l -0.37156,1.0697 -1.15341,3.67885 c 1.17086,0.42129 2.38171,0.95733 3.43649,1.8004 1.19233,0.95303 2.16088,2.33961 2.45927,4.17184 0.39718,2.43879 -0.87331,4.54801 -2.70733,6.08387 -1.83402,1.53589 -4.27307,2.67328 -6.72465,3.5605 -0.50808,0.18388 -1.01612,0.35387 -1.52084,0.51573 l -0.6041,1.9265 9.66298,0.16123 3.84834,-11.17503 0.67541,5.33508 5.21777,0.16795 3.57653,-7.32049 0.32711,6.16293 6.86573,-1.83658 1.81229,-6.91792 -0.19792,-3.16466 -5.6534,0.93224 2.78433,-9.01134 -5.51956,-0.0791 -4.59145,7.19491 -1.36529,-7.814 -8.43722,-0.67799 -0.75292,2.16679 z m -30.72008,0.0739 -1.6676,3.24734 -2.48512,25.49561 2.81894,-6.96961 5.14749,0.69557 1.78801,11.3068 9.54774,-1.59318 -7.70032,-31.40997 z m -48.06736,0.42374 -0.51572,4.39095 9.61026,-0.16278 1.17151,-0.0196 -0.25787,4.84415 3.75481,0.45734 1.00769,-7.39748 z m 16.25586,0.13075 c -1.94696,-0.0309 -3.31659,0.12092 -3.31659,0.12092 0,0 -0.0746,0.44951 -0.0806,0.48421 l 3.14193,0.44958 -1.3007,9.53895 -3.42976,-0.41858 c -0.1192,0.72042 -0.22388,1.35253 -0.3359,2.03244 l 3.03908,0.25321 -0.81442,7.84552 -3.48144,-0.33435 c -0.0834,0.52386 -0.15557,0.97321 -0.23978,1.5043 l 4.79558,0.28164 -0.86557,8.16384 -5.20537,-0.37052 c -0.007,0.0419 -0.33383,3.10937 -0.33383,3.10937 l 8.89403,0.10232 1.44384,-11.93777 5.92108,10.35544 7.54011,-5.28288 -6.27145,-8.72918 c 0,0 5.48318,-4.0992 3.7052,-10.74922 -1.44344,-5.3987 -8.52214,-6.35124 -12.80542,-6.41924 z m -19.36627,0.86248 -13.94747,0.32297 c 0,0 -2.55321,9.52015 -3.95066,15.20786 -1.39746,5.6877 -3.0763,14.24151 -3.0763,14.24151 h 17.95963 l 0.15451,-8.87956 -6.78873,0.15141 0.57981,-3.41478 6.08232,-0.4346 0.78238,-5.47305 -6.05803,0.30541 0.89038,-3.73104 6.00429,-0.49971 z m 123.11704,0.3824 -18.46244,1.64538 -2.52077,8.15971 6.64559,-1.09606 -3.27681,12.50311 -7.27346,1.94562 -2.2443,8.15247 24.43572,-5.80016 -0.16434,-7.39748 -7.26673,1.6893 2.93367,-12.21786 6.15518,-0.90433 z m 30.82603,0.30231 -20.11919,1.46244 -6.63939,16.43311 7.39542,-0.88212 -3.87832,9.71775 h 15.92409 l -0.9927,-7.97987 -8.49561,0.87643 0.38086,-2.71611 8.27856,-0.44235 0.31936,-6.56601 -7.50961,0.34933 0.30489,-1.18752 14.85129,-0.49093 c 0,0 -0.10555,-3.041 -0.0754,-4.47001 0.0301,-1.429 0.2558,-4.10414 0.2558,-4.10414 z m -141.72003,3.6437 -11.90884,0.20154 -0.75189,4.28501 -6.05493,0.50385 -0.36896,1.54305 5.9278,-0.29869 -1.09606,7.65793 -5.16454,0.37052 c -0.0355,0.4435 -0.069,0.87268 -0.1018,1.3069 l 5.54798,-0.12454 -0.19172,11.09183 h -5.67769 c -0.0276,3.11828 -0.0475,5.98723 -0.0475,5.98723 l 10.27947,-0.27285 c 0,0 -0.0525,-7.17503 0.0207,-12.84366 0.0731,-5.66863 0.65939,-11.31765 0.65939,-11.31765 l 8.50336,-0.0734 z m 9.95701,2.99672 c 0,0 3.29182,-0.0501 3.08664,3.15071 -0.20518,3.20076 -3.79254,3.13986 -3.79254,3.13986 z m 31.6978,0.82062 0.87591,6.63112 -3.41632,-0.38912 z m -40.98716,4.20026 -0.0579,1.08417 -5.20123,0.045 -3.19412,0.1049 -0.25528,2.33268 c -0.17563,2.00771 -0.40426,3.92355 -0.45476,7.83776 -0.0137,1.06345 -0.0198,2.18983 -0.0258,3.30316 l 11.80187,0.84026 0.632,-5.97431 -8.4925,-0.4992 0.5643,-3.84886 7.08744,0.68161 0.58652,-5.65805 z m 54.46489,3.29282 -3.07061,2.204 2.35282,9.59838 5.75572,-4.02972 z m -16.12977,6.00739 -2.93522,9.87071 7.38405,3.59978 2.74867,-1.92443 -2.55075,0.42582 -1.834,-11.59206 z" /></g><metadata
     id="metadata452"><rdf:RDF><cc:Work
         rdf:about=""><dc:creator><cc:Agent><dc:title>dekuuSkrb</dc:title></cc:Agent></dc:creator><dc:rights><cc:Agent><dc:title>dekuuSkrb</dc:title></cc:Agent></dc:rights><dc:identifier>eternalsmile</dc:identifier><dc:source>eternalsmile</dc:source></cc:Work></rdf:RDF></metadata><inkscape:templateinfo><inkscape:name>EtrnlSml-Aug-11-2024</inkscape:name><inkscape:date>2024-08-11</inkscape:date></inkscape:templateinfo></svg>
